<?xml version="1.0" encoding="utf-8"?>
<!-- Generator: Adobe Illustrator 24.0.2, SVG Export Plug-In . SVG Version: 6.00 Build 0)  -->
<svg version="1.1" id="레이어_1" xmlns="http://www.w3.org/2000/svg" xmlns:xlink="http://www.w3.org/1999/xlink" x="0px"
	 y="0px" viewBox="0 0 250 55" width="250px" height="55px" style="enable-background:new 0 0 250 55;" xml:space="preserve">
<style type="text/css">
	.st0{fill:#323333;}
	.st1{fill:#333333;}
	.st2{fill:#040000;}
	.st3{fill:#AE8642;}
</style>
<g>
	<g>
		<path class="st0" d="M138.36,21.7l1.62,0.93c-0.81,1.49-2.38,2.45-4.17,2.45c-2.61,0-4.76-1.99-4.76-4.8c0-2.8,2.15-4.8,4.76-4.8
			c1.79,0,3.36,0.96,4.17,2.45l-1.62,0.93c-0.47-0.96-1.42-1.55-2.55-1.55c-1.63,0-2.87,1.21-2.87,2.97c0,1.76,1.24,2.97,2.87,2.97
			C136.94,23.25,137.89,22.67,138.36,21.7z"/>
		<path class="st0" d="M148.64,24.84v-3.91h-4.56v3.91h-1.82v-9.12h1.82v3.39h4.56v-3.39h1.82v9.12H148.64z"/>
		<path class="st0" d="M162.85,24.84h-1.99l-0.9-2.09h-4.77l-0.9,2.09h-1.99l4.04-9.12h2.48L162.85,24.84z M159.23,21.07l-1.66-3.84
			l-1.65,3.84H159.23z"/>
		<path class="st0" d="M171.26,24.84l-4.89-7.18v7.18h-1.69v-9.12h2.41l4.11,6.05v-6.05h1.69v9.12H171.26z"/>
		<path class="st0" d="M176.41,24.84v-9.12h6.52v1.69h-4.82v1.95h4.17v1.69h-4.17v2.09h5.08v1.69H176.41z"/>
		<path class="st0" d="M186.12,24.84v-9.12h1.82v7.3h4.82v1.82H186.12z"/>
	</g>
	<g>
		<path class="st0" d="M216.93,15.72h4.38c0.72,0.01,1,0.04,1.36,0.1c1.15,0.22,1.95,1.16,1.95,2.39c0,0.77-0.27,1.38-0.78,1.76
			c0.81,0.48,1.21,1.2,1.21,2.14c0,1.49-0.9,2.44-2.27,2.66c-0.38,0.08-0.69,0.08-1.47,0.08h-4.38V15.72z M218.59,19.48h3.04
			c0.72,0,1.35-0.29,1.35-1.11c0-0.93-0.63-1.15-1.42-1.15h-2.97V19.48z M223.41,22.12c0-0.85-0.6-1.16-1.37-1.16h-3.45v2.38h3.47
			C222.82,23.35,223.41,22.99,223.41,22.12z"/>
		<path class="st0" d="M229.64,15.72v9.12h-1.76v-9.12H229.64z"/>
		<path class="st0" d="M240.26,15.72v1.63h-5.54v2.2h4.93v1.62h-4.93v3.68h-1.67v-9.12H240.26z"/>
		<path class="st0" d="M250,15.72v1.63h-5.54v2.2h4.93v1.62h-4.93v3.68h-1.67v-9.12H250z"/>
	</g>
	<g>
		<path class="st0" d="M204.72,21.26L202,24.84h-2.11l3.79-4.83l-3.38-4.29h2.11l2.39,3.11l2.4-3.11h2.09l-3.44,4.37l3.75,4.76
			h-2.09L204.72,21.26z"/>
	</g>
	<g>
		<path class="st1" d="M131.19,38.48l3.08-7.35h0.96l3.09,7.35h-1.02l-2.75-6.77h0.39l-2.75,6.77H131.19z M132.5,36.64l0.26-0.84
			h3.83l0.28,0.84H132.5z"/>
		<path class="st1" d="M141.56,38.56c-0.52,0-1.01-0.09-1.49-0.26c-0.47-0.17-0.85-0.39-1.12-0.67l0.36-0.82
			c0.26,0.25,0.59,0.45,0.99,0.61c0.4,0.16,0.82,0.24,1.25,0.24c0.4,0,0.72-0.05,0.96-0.15c0.25-0.1,0.43-0.23,0.54-0.4
			c0.12-0.17,0.18-0.37,0.18-0.58c0-0.25-0.08-0.46-0.23-0.61c-0.15-0.15-0.35-0.28-0.59-0.37c-0.24-0.09-0.51-0.18-0.8-0.25
			c-0.29-0.07-0.59-0.15-0.88-0.25c-0.3-0.09-0.56-0.22-0.81-0.36c-0.24-0.15-0.44-0.34-0.59-0.59c-0.15-0.25-0.22-0.57-0.22-0.96
			c0-0.38,0.09-0.73,0.28-1.05c0.18-0.32,0.47-0.57,0.86-0.77c0.39-0.19,0.88-0.29,1.47-0.29c0.4,0,0.79,0.06,1.18,0.17
			c0.39,0.11,0.73,0.27,1.01,0.48l-0.32,0.84c-0.29-0.21-0.6-0.36-0.92-0.46c-0.32-0.09-0.64-0.14-0.94-0.14
			c-0.38,0-0.7,0.05-0.94,0.16c-0.25,0.11-0.43,0.25-0.54,0.42c-0.11,0.18-0.17,0.37-0.17,0.59c0,0.26,0.08,0.47,0.23,0.62
			c0.15,0.15,0.35,0.28,0.59,0.37c0.24,0.09,0.51,0.17,0.8,0.25c0.29,0.07,0.59,0.16,0.88,0.25c0.29,0.09,0.56,0.21,0.81,0.36
			c0.24,0.15,0.44,0.34,0.59,0.59c0.15,0.25,0.22,0.56,0.22,0.95c0,0.37-0.09,0.72-0.28,1.03c-0.19,0.32-0.48,0.57-0.87,0.77
			C142.66,38.46,142.16,38.56,141.56,38.56z"/>
		<path class="st1" d="M145.86,38.48v-7.35h0.97v7.35H145.86z"/>
		<path class="st1" d="M148.09,38.48l3.08-7.35h0.96l3.09,7.35h-1.02l-2.75-6.77h0.39l-2.75,6.77H148.09z M149.4,36.64l0.26-0.84
			h3.83l0.28,0.84H149.4z"/>
		<path class="st1" d="M156.49,38.48v-7.35h0.8l4.5,6.04h-0.42v-6.04h0.97v7.35h-0.8l-4.5-6.04h0.42v6.04H156.49z"/>
		<path class="st1" d="M169.86,38.48h-0.97v-7.35h4.81v0.91h-3.83V38.48z M169.76,34.6h3.51v0.9h-3.51V34.6z"/>
		<path class="st1" d="M175.31,38.48v-7.35h0.97v7.35H175.31z"/>
		<path class="st1" d="M178.57,38.48v-7.35h0.97v6.44h3.69v0.91H178.57z"/>
		<path class="st1" d="M184.59,38.48v-7.35h0.8l3.05,5.56h-0.43l3.02-5.56h0.8l0.01,7.35h-0.93l-0.01-5.77h0.22l-2.68,4.87h-0.45
			l-2.7-4.87h0.24v5.77H184.59z"/>
		<path class="st1" d="M197.35,38.48l3.08-7.35h0.96l3.09,7.35h-1.02l-2.75-6.77h0.39l-2.75,6.77H197.35z M198.66,36.64l0.26-0.84
			h3.83l0.28,0.84H198.66z"/>
		<path class="st1" d="M208.69,38.56c-0.52,0-1-0.09-1.43-0.28c-0.44-0.19-0.82-0.45-1.14-0.79c-0.32-0.34-0.57-0.74-0.75-1.19
			c-0.18-0.46-0.27-0.96-0.27-1.5c0-0.55,0.09-1.05,0.27-1.5c0.18-0.46,0.43-0.85,0.76-1.19c0.32-0.34,0.71-0.6,1.14-0.79
			c0.44-0.19,0.92-0.28,1.43-0.28c0.53,0,1.01,0.1,1.45,0.29c0.44,0.19,0.82,0.48,1.13,0.86l-0.63,0.66
			c-0.26-0.29-0.55-0.51-0.88-0.66c-0.32-0.14-0.67-0.22-1.04-0.22c-0.38,0-0.74,0.07-1.07,0.21c-0.33,0.14-0.61,0.34-0.85,0.59
			c-0.24,0.25-0.43,0.55-0.56,0.9c-0.13,0.35-0.2,0.72-0.2,1.13c0,0.41,0.07,0.78,0.2,1.13c0.13,0.35,0.32,0.65,0.56,0.9
			c0.24,0.25,0.52,0.45,0.85,0.59c0.33,0.14,0.68,0.21,1.07,0.21c0.37,0,0.72-0.07,1.04-0.22c0.32-0.14,0.62-0.37,0.88-0.67
			l0.63,0.66c-0.31,0.38-0.69,0.67-1.13,0.86C209.71,38.46,209.22,38.56,208.69,38.56z"/>
		<path class="st1" d="M211.72,38.48l3.08-7.35h0.96l3.09,7.35h-1.02l-2.75-6.77h0.39l-2.75,6.77H211.72z M213.04,36.64l0.26-0.84
			h3.83l0.28,0.84H213.04z"/>
		<path class="st1" d="M220.12,38.48v-7.35h2.87c0.73,0,1.37,0.15,1.92,0.46c0.55,0.31,0.99,0.74,1.29,1.29
			c0.31,0.55,0.46,1.19,0.46,1.92c0,0.73-0.15,1.37-0.46,1.92c-0.31,0.55-0.74,0.98-1.29,1.29c-0.55,0.31-1.19,0.46-1.92,0.46
			H220.12z M221.09,37.56h1.84c0.56,0,1.05-0.12,1.46-0.35c0.41-0.23,0.73-0.56,0.96-0.97c0.23-0.42,0.34-0.9,0.34-1.44
			c0-0.55-0.11-1.04-0.34-1.45c-0.23-0.41-0.55-0.74-0.96-0.97c-0.41-0.23-0.9-0.35-1.46-0.35h-1.84V37.56z"/>
		<path class="st1" d="M229.37,37.56h3.97v0.91h-4.94v-7.35h4.81v0.91h-3.83V37.56z M229.28,34.29h3.5v0.89h-3.5V34.29z"/>
		<path class="st1" d="M235.16,38.48v-7.35h0.8l3.05,5.56h-0.43l3.02-5.56h0.8l0.01,7.35h-0.93l-0.01-5.77h0.22L239,37.58h-0.45
			l-2.7-4.87h0.24v5.77H235.16z"/>
		<path class="st1" d="M246.33,38.48v-2.82l0.22,0.65l-2.93-5.19h1.04l2.46,4.38h-0.56l2.47-4.38H250l-2.92,5.19l0.21-0.65v2.82
			H246.33z"/>
	</g>
</g>
<g>
	<g>
		<path class="st2" d="M0,12.23h14.45c5.85,0,9.81,1.89,9.81,7.61c0,3.1-1.42,5.08-4.17,6.41c3.79,1.08,5.64,3.96,5.64,7.79
			c0,6.24-5.29,8.91-10.84,8.91H0V12.23z M6.75,24.66h6.84c2.41,0,4.13-1.08,4.13-3.66c0-2.88-2.24-3.53-4.65-3.53H6.75V24.66z
			 M6.75,37.69h7.23c2.62,0,4.99-0.86,4.99-4.04c0-3.14-1.94-4.39-4.86-4.39H6.75V37.69z"/>
		<path class="st2" d="M27.36,42.94L41.3,12.27h6.8l13.72,30.67h-6.54l-3.01-6.8H36.74l-3.23,6.8H27.36z M44.78,18.03l-5.16,11.87
			h10.2l-4.99-11.87H44.78z"/>
		<path class="st2" d="M71.71,37.24v5.72h-6.54V12.12h22.41v5.68H71.71v6.93h14.02v5.98H71.71V37.24z"/>
		<polygon class="st2" points="98.79,12.03 84.79,42.86 90.97,42.86 102.3,17.83 102.3,17.83 102.34,17.83 102.34,17.83 
			107.35,29.76 107.35,29.76 112.82,42.79 112.84,42.86 119.42,42.86 105.63,12.03 		"/>
		<polygon class="st3" points="102.27,32.84 102.26,32.84 97.73,42.86 106.48,42.86 		"/>
	</g>
</g>
</svg>
