<?xml version="1.0" encoding="UTF-8"?>
<svg id="_레이어_1" data-name="레이어 1" xmlns="http://www.w3.org/2000/svg" version="1.1" viewBox="0 0 250 52">
  <defs>
    <style>
      .cls-1 {
        fill: #e10011;
      }

      .cls-1, .cls-2 {
        stroke-width: 0px;
      }

      .cls-2 {
        fill: #fff;
      }
    </style>
  </defs>
  <path class="cls-1" d="M48.6,25.7c0-2.6-.4-5.1-1.1-7.4h0c0,.3,0,.3-.1.5-.1.2-.2.9-.2,1,0,.2,0,.4,0,.5,0,.2,0,.3,0,.4,0,.2,0,.4,0,.6,0,.4,0,.6,0,1,0,.4,0,.5,0,.9,0,.4,0,.4,0,.6-.1.5,0,1,0,1.6,0,.2.1.4,0,.6,0,.2,0,.4,0,.7,0,.3,0,.7,0,1,0,.3,0,.6,0,.9v.2c0,.1,0,.2,0,.3,0,.1,0,.2,0,.4,0,.2-.2.3-.2.5l-.2.3c-.1.1-.2,0-.4,0-.1,0,0,.3,0,.5,0,.4,0,.7,0,1.1v.2c0,0,0,.1,0,.1h0c0,.1,0,.3,0,.3,0,.2-.2.4-.3.6,0,.1-.2.2-.3.3-.2.2-.3.2-.5.2-.2,0-.3.2-.4.3-.2,0-.3.1-.4.3-.1,0-.3.2-.4.3-.2,0-.2,0-.4.1-.4,0-.7.2-1.1.3-.3,0-.5-.1-.8,0-.2,0-.3,0-.5-.1-.2,0-.3-.1-.5-.2-.2,0-.4-.2-.6-.3-.4-.2-.8-.7-.9-.9-.1-.1-.2-.2-.3-.3h0c0,.2.2.2.3.3.1,0,0,.2.1.3v.3c0,.2-.2.3-.2.5,0,.2.2.3.2.5,0,.2,0,.3-.1.4,0,.2,0,.4,0,.6,0,.2,0,.5,0,.7,0,.2,0,.4,0,.6,0,.3,0,.4,0,.7,0,.3,0,.8,0,1.1s0,.9,0,1.3c0,.2,0,.4,0,.6,0,.1-.1.1-.2.2,0,.2,0,.4,0,.6,0,.4,0,.9,0,1.3,0,.5,0,.9,0,1.4,0,0,0,.2,0,.3,2.3-1.7,4.3-3.8,5.8-6.2,0,0-.1-.2-.2-.3l.4-.7-.9.5s0-.5-.3-1.1l.4-1.1s.9,1,1.5,1c1.8-3.4,2.9-7.2,2.9-11.3M34.5,22.6h0c0,0,0-.4,0-.4,0,0-.2-.2-.3-.2l-.2.2c0,0-.3.2-.2.3h.2c0,.2.2.2.3.3v.2s-.4.2-.4.2h0c0,0,0,.2,0,.2h0c0,.1,0,.3,0,.3h0s.1.2.1.2c0,.1.1.2.2.3.1,0,.3.1.4.2h0s0,0,0,0l.2.2h.1c.1.2,0,.3.3.4.3,0,.5.1.8.1h.3s.2-.3.2-.3c.1,0,.3,0,.5,0,.1,0,.3,0,.4-.2.2-.2.4-.5.5-.7.2-.3.2-.7,0-1.1,0-.4,0-.7-.4-.9h-.2c0-.1,0-.3,0-.3-.1,0-.4,0-.6,0-.4,0-1-.2-1.4,0-.1,0-.2.2-.3.2-.2.1-.1.2-.3.3-.2.2-.2.3-.3.5,0,.2-.2.2-.4.2M39.6,31.1h0c0,.2,0,.3,0,.4,0,.1,0,.1,0,.2,0,.2,0,.2,0,.3,0,0,0,.3,0,.2,0-.1,0,0,0,0,.2.2.6.6.7.5,0,0,.2.1.4.2,0,0,0,.1,0,.2,0,.1.2.2.4.2.1,0,.2.2.4.2,0,0,.5,0,.7-.2.2-.2.3-.3.6-.4.2,0,.7-.1.8-.2l.2-.2c.2-.2.2-.4.3-.7,0-.2,0-.4.1-.6v-.3c0-.1,0-.2,0-.3,0-.3-.5-.6-.5-.9,0-.2,0-.3-.3-.4,0,0-.2.4-.4.4-.1,0-.1,0-.3,0-.3,0-.7-.3-1.1-.3-.1,0-.2,0-.3,0h-.1s-.2.2-.2.2c-.2,0-.3.1-.5.1-.3,0-.3.2-.5.4,0,.2-.2.3-.3.5v.4c-.1,0-.4,0-.4,0,0,0-.4,0-.5,0h0c0,.1,0,.3.2.3h.3ZM11.1,37c0,.1.2.2.2.3h-.3c0,0-.2.3-.2.3h-.2c-.2,0-.4.1-.6.1-.2,0-.3,0-.4,0h-.1c0,.1-.2.2-.2.2-.1,0-.2.3-.3.3,0,.1-.2.3-.2.5,0,.2,0,.2,0,.4,0,.1,0,.2,0,.3l.2.3c.1.2,0,.4.2.5.4.3.7.5,1.2.6.2,0,.4,0,.6,0,.1,0,.3,0,.3,0h.2c.2-.2.4-.3.5-.5.1-.1.3-.2.4-.4,0,0,.2-.2.2-.4,0-.1,0-.2,0-.3,0-.1.2,0,.2-.2,0-.1,0-.1,0-.2-.2-.3-.1-.8-.3-1.1h-.3c0-.3-.1-.2-.3-.2-.1,0-.2,0-.3,0h-.3c0,0,0-.2,0-.2v-.2c0,0-.3,0-.3,0ZM47,17h0c-1.7-4.5-4.8-8.5-8.8-11.2,0,.3,0,.7,0,1v.3c0,.2,0,.2-.2.4.2.1.2.1.2.4,0,.2,0,.3,0,.5,0,.2,0,.3,0,.5,0,0-.2,0-.4.1-.2,0-.1,0-.3-.1-.1,0-.4.2-.4.1l.2.4c0,0,.6,0,.7,0h.2s0,.2,0,.2c.1.3.6.3.8.2.1,0,.2-.2.3-.2h.3s.2,0,.2,0h.1s0,0,0,0h.2c.1.1.3.2.4.2h.2c.2,0,.1-.2.4-.1l.3.2c.2.1.4.3.5.4.2.2,0,.3.1.5-.1,0-.2.2-.3.3-.2.1-.4.3-.6.4-.2,0-.3,0-.5,0-.2,0-.2,0-.5,0-.3-.1-.7,0-1,0-.2,0-.4,0-.5,0-.1,0-.2-.1-.3-.2h0c0,0-.1,0-.2,0h0c0,0,0,.3,0,.3,0,.2,0,.4,0,.6l-.2.4c0,.1,0,.2.1.3,0,.2,0,.4,0,.4,0,.2,0,.3,0,.4,0,.2,0,.4,0,.6,0,.3,0,.5,0,.7,0,.2,0,.3,0,.5,0,.2-.3.3-.4.5,0,.1-.1.3-.2.5.1,0,.3-.1.4,0,.2,0,.3,0,.4,0,.2,0,.5,0,.7,0,.2.1.4.3.6.4.2.1.3.2.6.5.1.1.5.2.5.4,0,.1,0,.1,0,.2,0,0,0,.3,0,.4,0,.2-.3.1-.5.2-.3,0-.5.3-.9.3-.6,0-1.1-.3-1.7-.3-.5,0-.5-.1-1,0-.3,0-.5,0-.8,0-.1,0-.1,0-.2-.1h0c.1-.1.2-.2.3-.2h.2s0-.2,0-.2l-.3-.2c-.1,0-.2,0-.3.1v.3c0,0-.2,0-.2,0h-.2c-.1,0-.2,0-.3.1-.2,0-.6,0-.8,0-.6,0-.9,0-1.5,0-.6,0-1.3.2-1.9.2-.4,0-.7.1-1.1.3-.3,0-.5-.1-.8-.2-.2,0-.3,0-.5-.2,0,0-.3-.2-.3-.3,0-.2,0-.3,0-.5h.4c0-.1.3-.4.3-.4v-.3h-.6c0,0,0,0,0,0v-.2c0-.2,0-.4,0-.6,0-.2,0-.6,0-.7,0-.1,0-.3,0-.4,0-.3.1-.6.2-.9,0-.3-.2-.7-.2-.9,0-.1-.1-.2,0-.4,0-.3.6-.3.7-.2.2,0,.3,0,.4.1.1.2,0,.2.3.2.1,0,.1,0,.2,0,.1,0,.3.1.3.2v.2c0,0,.3.3.3.3.1.2.1.2,0,.5,0,.2,0,.4,0,.6,0,.1,0,.4,0,.5l-.2.2v.3c0,.3,0,.8,0,1.2h.2c.4.1.8,0,1.3.1.1,0,0,0,.2,0h.1c0,0,.3,0,.3,0,.1,0,.3,0,.4,0h.4c.1,0,.2,0,.3,0,.4,0,.5-.2.9-.2.3,0,.6,0,.9-.1.3-.1.7,0,1,0,.4,0,0,0,.4-.1,0,0,.2,0,.3,0h-.1c0-.3-.1-.4-.1-.6,0-.2,0-.4,0-.6,0-.1,0-.3,0-.5,0-.2,0-.2-.1-.4v-.7c.2-.3.2-.5.2-.8,0-.3,0-.3,0-.6,0-.2,0-.5,0-.7,0-.2,0-.2,0-.4,0-.1,0-.1,0-.3,0-.1,0-.2,0-.4,0-.7,0-1.5,0-2.2,0-.2,0-.4,0-.5h-.1c0,0-.1,0-.1,0,.1,0,.1-.2.2-.3,0-.1.1-.1.1-.3,0-.3,0-.6,0-.9,0-.2,0-.5,0-.7h.2c0-.1-.3-.3-.3-.3,0-.3-.1-.6-.3-.8-.2-.2-.5-.3-.6-.6h0c-2.1-1.2-4.4-2-6.9-2.4v.2c0,.4.2.7.2,1.1,0,.2,0,.5-.1.7,0,.3,0,.6,0,1-.3.1-.3-.3-.4-.6-.2-.4-.3-.4-.2-.9,0-.3.2-.4.2-.8v-.2c0-.2,0-.4,0-.5-1.2-.2-2.4-.3-3.6-.3-1.3,0-2.5,0-3.7.3.2,0,.4.1.5.2v.2c.2.1.3.2.4.3h.3c.1.3,0,.8,0,.9,0,.2,0,.5,0,.7,0,.1,0,.2-.1.3v.2c0,0-.2.1-.2.1,0,.1,0,.2,0,.4,0,.3,0,.7-.1,1,0,.3,0,.7,0,1,0,.2,0,.2,0,.4,0,.2,0,.2,0,.4,0,.2,0,.5,0,.8h0s0,.5,0,.6c0,.4-.3.6-.5.9-.2.1-.1.3-.4.2-.2,0-.3,0-.5,0-.3,0-.6,0-.8-.2-.3-.4-1-.2-1.4-.2s-.3,0-.5,0c-.2,0-.1.1-.3,0h.1s-.2,0-.2,0h0c-.2,0-.4,0-.4,0-.1,0-.2,0-.3,0-.1,0-.1,0-.2,0h-.2c-.3,0-.3.2-.5.3-.1,0-.3.1-.4.1h-.2c-.1,0-.2,0-.4,0-.2,0-.3,0-.5,0-.2,0-.3-.2-.5-.3-.2,0-.3,0-.4-.2v-.2s0-.2,0-.2v-.2c0,0,.2-.1.2-.1,0-.2,0-.3,0-.5,0-.1,0-.2,0-.4s0-.3,0-.5h0c0-.3,0-.4,0-.5,0-.2.2-.4.2-.6,0-.1-.2-.2-.2-.3,0-.1,0-.3,0-.4,0-.1,0-.3,0-.4,0-.3,0-.3,0-.6,0-.1,0-.2,0-.3,0-.1,0-.1,0-.2,0,0,.1,0,.1-.1h0c-1.3.6-2.5,1.4-3.7,2.3l-.6.7.5.5v.5c-.5-.3-1.1,1-1.1,1h-.6c0-.1-.2-.6-.2-.6,0-.2,0-.3,0-.5-3.5,3.3-6,7.7-7,12.6.5,0,1,0,1.5,0,.5,0,.9,0,1.4,0,.4,0,.8,0,1.1-.1.2,0,2.1.2,2.3,0,0,0,.2,0,.3-.1.1,0,.2,0,.3,0,.2,0,.5,0,.8,0,.3,0,.5,0,.8-.1.4,0,.5,0,.9-.1h.2c.2,0,.3-.2.3-.5,0-.2.1-.5.2-.7,0-.3,0-.4,0-.7,0-.2,0,0,0-.4,0-.2,0-.3,0-.4,0-.2,0-.5,0-.6,0,0-.2,0-.4-.2-.1,0-.3,0-.5,0-.7,0-1.2.3-1.9.2-.2,0-.4-.1-.6-.1-.1,0-.2,0-.4,0h-.3c-.2.1-.2,0-.4-.1-.2-.1-.3-.1-.5-.1l-.3.4c-.2.1-.4.1-.6.2-.2,0-.3,0-.5,0-.2,0-.4,0-.5,0-.1,0-.2-.2-.3-.3-.1,0-.3-.1-.4-.2-.1-.1-.5-.5-.4-.7,0-.1.4-.3.5-.3s.3.1.5.1c.4,0,.9,0,1.2,0,.5-.1,1-.1,1.5-.2.3,0,.7,0,1-.1.2,0,.4,0,.6-.1.4,0,.7-.1,1.1-.2.3,0,.7-.2,1-.2.1,0,.2,0,.3,0,.1,0,0-.2.2-.2.1,0,.5,0,.6,0,.2,0,.4.1.6.2.2,0,.4.1.5.3.1.2.3.4.4.6,0,.1.2.2.3.4,0,.1,0,.4,0,.6,0,.1-.1.1-.2.3v.3c0,.3,0,.6,0,.9-.1.5-.2,1.1-.4,1.6,0,.1,0,.3-.1.4,0,.2-.2.2-.3.3,0,0,.7,0,.8,0,.3,0,.8,0,1,0,.4,0,.7-.2,1.1-.2.2,0,.4,0,.6,0,.4,0,.6,0,.8,0,.2,0,.3,0,.5.1,0-.1-.2-.2-.2-.3,0,0,0-.2,0-.3,0-.2,0-.4,0-.7,0-.2.1-.4.2-.6,0-.2,0-.5,0-.8,0-.2.1-.4.2-.7,0-.2,0-.3,0-.5.1-.4,0-.7,0-1.1l-.2-.8c0-.1,0,0,0,0h-.1c0-.2,0-.3-.1-.3l-.2-.2v-.3c0,0,0,0-.3,0-.2,0-.4,0-.7,0s-.6,0-.8,0c-.7,0-1.3,0-2,.1-.5,0-1,.1-1.5.2-.2,0-.3.1-.5,0-.2,0-.2,0-.4,0-.5,0-1.2,0-1.7.2-.2,0-.2,0-.4,0-.2,0-.5-.1-.7-.1-.2,0-.4,0-.5,0-.1,0-.1,0-.2-.2-.1-.1-.2-.2-.3-.3-.1-.1-.2-.3-.3-.4-.1-.1-.2-.1-.3-.3v-.4c0,0,0,0,0,0,0-.1.3-.1.4-.2.2,0,.2,0,.4.1.2,0,.3,0,.5,0,.1,0,.2,0,.4,0,.3,0,.5,0,.8,0,.3,0,.8,0,1,0,.3,0,.9,0,1.2,0q.4,0,.8,0c.4,0,.7,0,1.1,0,1.1,0,2.1,0,3.1-.4.2,0,.4,0,.5,0h.3s.2,0,.2,0h.3c.2,0,.4,0,.6,0s.3,0,.5,0,.3.2.5.1h.2c.1-.2.2-.2.3-.2.2,0,.2,0,.4,0,.4,0,.7,0,1.1,0,.3,0,.6,0,1,0,.3,0,.4-.1.7-.2.2,0,.4-.2.7-.2.2,0,.6,0,.8.1.3,0,.4.2.6.3.2.1.1.4.4.4.1,0,.2-.1.3-.1h0c.2-.3.3-.6.5-.9.2-.2.4-.3.6-.4.2-.2.4-.5.6-.7.2-.3.3-.5.6-.8.1-.1.2-.2.3-.4.1-.2.2-.4.4-.6,0,0,.2-.2.2-.3,0-.1,0-.2.1-.3l.2-.3c.5-.6.7-1.1,1-1.9.1-.3,0-.4,0-.7,0-.2,0-.5,0-.6,0-.1.3-.2.3-.2l.6.5c.1.2.4.3.6.5,0,.1.1.3.1.4,0,.2,0,.2-.1.4,0,.2.1.3.2.4.1.2.1.2.2.4.1.4.4.7.6,1,.2.3.4.6.7.9l.2.2v.2c.1.1.3.2.4.3l.2.2c.1.1,0,0,.2.2.3.3.5.5.8.7.1.1.4.3.5.6,0,.2.3.2.4.2.2.1.3.2.4.6-.2.3-.7.8-1,1-.2.1-.4.1-.6.1-.2,0-.2-.2-.4-.2-.2,0-.3,0-.5,0-.1,0-.2,0-.2,0l-.2-.3c-.1-.1-.2-.2-.3-.3-.2-.1-.2-.2-.2-.4,0-.1,0-.3,0-.4,0-.1-.1-.3-.2-.4,0-.2,0-.4-.2-.5-.1-.1-.2-.1-.4-.2-.2-.2-.3-.5-.4-.8-.1-.4-.2-.8-.4-1.1,0-.2-.2-.3-.4-.4-.2,0-.2,0-.4.2-.1.1-.2.4-.3.5-.1.2-.2.4-.4.6-.3.4-.4,1-.8,1.4l-.2.3-.2.2c-.2.3-.3.7-.5,1-.2.2-.3.3-.4.5,0,.2-.2.4-.4.6h-.1s.2.2.2.2l.2.3h0c0,.1,0,.4,0,.4-.2.1-.4.1-.6.3-.1.1-.2.2-.4.2-.1,0-.2,0-.4,0-.3,0-.6,0-.9,0-.2,0-.4-.1-.6-.2-.4-.2-.9-.2-1.4-.2-.5,0-1-.1-1.4,0h0c.1.2.3.3.4.4,0,.1,0,.2,0,.3-.2,0-.2,0-.4,0s-.2,0-.4-.1c-.1,0-.3,0-.4,0-.2,0-.2-.3-.3-.3.2-.1.5,0,.6-.1h0c0-.1-.1-.1-.1-.1,0,0-.2,0-.3-.1-.3,0-.6,0-.8,0-.2,0-1.1-.2-.9,0,.1,0,.3.3.3.6,0,.3-.1.1,0,.5,0,.2,0,.3-.1.5h-.4c0,0,0,0,0,0h-.2c0,.1,0,.4,0,.4l.2.2.2-.2h0c0,0,.1,0,.1,0v.3c0,.2,0,.4,0,.6v.3c.2.3.1.6.1.8,0,.1,0,.2,0,.3,0,.1,0,.2,0,.3,0,.4.2.9,0,1.2-.1.2-.2.3-.3.5-.1.1,0,.1-.2.2-.1.1-.3.3-.5.5.2.1.4.2.7.3.3,0,.4,0,.6.2.1.1.2.2.3.4v.2s-.2.2-.2.2c-.2.2-.2.4-.5.4-.2,0-.4,0-.6.1-.3.1-.3.1-.6.3,0,0-.3,0-.4,0-.2,0-.4,0-.6-.2-.2-.1-.4-.2-.7-.3-.2-.1-.4-.2-.6-.3-.4-.2-.9,0-1.4-.1-.5,0-1-.2-1.6-.1h-.2c-.1,0-.2.1-.3.1-.1,0-.2,0-.4,0-.2,0-.3,0-.4,0-.1,0-.1-.1-.4-.2h-.6c0,.2.3.3.4.3v.3c0,.1,0,.2,0,.4,0,.1,0,.2,0,.4,0,.2,0,.4,0,.6,0,.2,0,.3,0,.5,0,.2,0,.5,0,.7,0,.2,0,.3-.3.4h0c0,0,0,0,0,0,.3,0,.5,0,.8-.1.1,0,.3,0,.4,0,.1,0,.3-.2.6-.2.2,0,.4.1.6.1.2,0,.3,0,.5,0,.6.2.4,0,.7.3.3.4.6.7.5,1,0,.2-.3.6-.3.8s0,.2,0,.5c0,.2-.1.5,0,.7,0,.2,0,.3,0,.5,0,.4,0,.5,0,.7,0,.3,0,.5,0,.7,0,.3-.1.5,0,.7,0,.1.1.5,0,.6l-.3.2-.3.2c-.2.1-.3.3-.5.4-.2.1-.4.2-.6.3-.2.1-.2.2-.4,0-.1-.4-.3-.7-.2-1.2,0-.2,0-.2.1-.4.1-.2.1-.7.2-.9v-.3h.2c.1,0,.2,0,.3,0l.2.2h0c0,0-.1-.3-.1-.3v-.3c-.2,0-.4,0-.5,0,0-.4.1-.5.2-1,0-.1,0-.2,0-.3,0-.4-.1-.8-.1-1.2h-.2c-.2-.3-.5-.6-.8-.7-.1.3-.6.3-.9.3-.2,0-.4,0-.6,0-.2,0-.4,0-.6,0-.2,0-.3,0-.5,0-.2,0-.3.1-.4.2-.1,0-.3,0-.4,0-.8,0-1.6.2-2.4.2-.3,0-.6,0-1,0-.1,0-.3,0-.4,0h-.2c0,.1-.1.1-.1.1h-.3s-.3-.1-.3-.1c-.1,0-.3,0-.4-.2h-.3c0-.1,0-.1,0-.1l-.2-.3h-.1c0,0,0-.3,0-.3v-.3c.1,0,.1,0,.2,0h.3c.2-.2.4,0,.6,0,.4,0,.8,0,1.2,0,.4,0,.8,0,1.2,0,.3,0,.5,0,.8,0,.1,0,.2-.2.3-.2.2,0,.3,0,.5,0,.3,0,.5,0,.7,0,.3,0,.5,0,.8,0s.2,0,.3,0c0-.1,0-.2,0-.3,0-.1,0-.2-.1-.3,0-.1-.2-.2-.2-.4.2-1,.2-.9.2-1.2,0-.2,0-.5,0-.7,0-.2,0-.3,0-.5,0-.2-.2-.2-.3-.3h-.3c-.3,0-.5,0-.7,0-.3,0-.6.2-.9.1,0-.1-.4-.2-.5-.2-.2,0-.2.1-.4.2,0,0-.2,0-.3.1-.1,0-.3,0-.4,0-.2,0-.4,0-.6.1-.7.1-1.4.1-2.1,0h-.2s-.1-.2-.1-.2c-.1,0-.2.2-.4.2-.2,0-.4,0-.6.1-.1,1-.2,2.1-.2,3.1,0,2.6.4,5,1.1,7.3l.6-.4,1.3.8s-.3.2-.2,1v.9c0,0-.6,0-.6,0,0,0-.3-.5-.7-.9,1.5,3.9,4,7.3,7.1,9.9h.2c.1,0,.3,0,.4,0h.3c.2-.2.7,0,.8-.3v-.2s0-.2,0-.2v-.2c-.2-.7-.3-.7-.3-.8,0-.2.2-.3.2-.4-.1,0-.3,0-.4,0-.2,0-.4,0-.6,0-.2,0-.3-.2-.5-.2h-.3c-.1,0,0,0-.3,0l-.2-.2c0,0-.2-.1-.3-.2,0,0,0-.1-.2-.3,0,0-.1-.2-.2-.3,0,0-.1-.2-.1-.3,0,.1-.3-.8-.2-.6-.2-.2-.2-.3-.1-.6,0-.4,0-.7.3-1,.2-.3.4-.7.7-.8h.4c0-.1,0-.3,0-.3h.2c.2-.2.3-.3.5-.4.4-.2.8-.2,1.2-.3.4-.1.6-.2,1-.2.3,0,.3.2.5.3.2.1.4,0,.6.1.3,0,.5.2.8.3.1,0,.2.1.4.2.1,0,.2.1.3.2.2.1.3.2.4.3.1.2.2.4.3.6v.3c0,.1,0,.2,0,.5,0,.2,0,.3,0,.5,0,.2-.1.2-.2.3-.2.2-.2.4-.3.7-.1.2-.3.6-.6.7-.1,0-.3.1-.4.2-.1,0-.3.2-.4.2-.2,0-.4.2-.5.3h-.2c0,.1,0,.2,0,.2h-.2c0,.1,0,.3,0,.3l.2.2c.2.4,0,.8.1.9.1.1,0,.6.1.6.1,0,0-.2,0-.2.2,0,.9-.1,1.2-.2.6-.2,1.1-.3,1.6-.4.2,0,.3,0,.5,0,.2,0,.4.2.6.2.1,0,.3,0,.4,0h0c-.2-.4-.4-.5-.4-.8,0-.3,0-.5,0-.7.2,0,.4-.2.5-.3,0-.2,0-.5,0-.8h0c.2,0,.3,0,.5,0,0,.2-.2.4-.2.7,0,.3,0,.6,0,.9,0,.3-.1.5,0,.8h0c.2.1.3.1.4.2.1,0,.1.1.2.2.1.1.2.3.4.4.2.2,0,0,.3,0,.1,0,.1,0,.2,0-.1-.3-.3-.3-.7-.4,0-.2-.1-.3-.1-.5s0-.2.1-.3c.1-.3.1-.9,0-1.2,0-.5,0-.9,0-1.4,0-.2,0-.3,0-.5,0-.2,0-.4,0-.6,0-.3,0-.7,0-1,0-.5,0-1.1,0-1.6,0-.4,0-.8,0-1.2,0-.2,0-.3,0-.5-.1-.3,0-.3.2-.5-.3-.2-.2-.4-.3-.7,0-.2-.1-.4-.1-.7s0-.5,0-.8,0,0,0-.2c0-.1-.4-.7-.8-.9-.1,0,0,0,0-.2h0c0,0,0,0,0,0l-.2.2c-.2,0-.4.4-.5.6l-.2.3c-.1.1-.3.2-.5.3-.4.2-.6.5-1.1.6-.1,0-.3-.1-.4-.1-.1,0-.3.1-.4,0v-.4c-.1,0,0-.2.1-.3,0,0,.3-.3.4-.5,0-.1.2-.4.3-.5.2-.2.3-.4.4-.5.2-.3.4-.4.7-.7.1-.1.3-.2.3-.4,0-.2.1-.3.3-.5.5-.6,1.1-1.3,1.2-1.5,0-.2.2-.2.3-.3l.2-.2c0-.1.1-.2.2-.3.1-.2.2-.4.4-.5.1-.1.3-.3.4-.5v-.3c0,0,.1-.3.1-.3,0-.1,0-.3,0-.5,0-.1,0-.2,0-.4,0-.1,0-.1,0-.3,0,0,.1-.1,0-.2-.1,0-.2,0-.4,0-.2,0-.3,0-.5,0-.1,0-.5,0-.5,0-.2,0-.4,0-.8,0-.3,0-.5,0-.8.1h-.2c0-.2-.2-.5-.3-.6h-.1c0-.1-.1-.2-.1-.2h0c0,0,0-.6,0-.6v-.2c.3,0,.6.1.7.2.2,0,.5,0,.7,0,.1,0,.2,0,.3,0h.1s.1.1.1.1c.1,0,.2-.1.3-.2.1,0,.3,0,.4,0,.3,0,.5,0,.8,0,.1,0,.3,0,.4,0,.2,0,.1,0,.3-.1.2,0,.4,0,.6,0,.3,0,.5,0,.8,0,.3,0,.5-.2.8-.3.2,0,.3-.2.5-.2.2,0,.4,0,.6-.1.3,0,.4.1.6.2,0,0,.7.2.4.2.1,0,.1.2.3.2.2,0,.1,0,.3,0h.3c0,.1,0,.3,0,.3v.2c0,.1,0,0,0,.2,0,.1-.2.3-.2.4,0,.2-.2.3-.3.4l-.2.2c0,0-.3,0-.4,0-.3,0-.7,0-1,0h-.3c0,0-.2.1-.2.1-.1,0-.3,0-.4,0-.1,0-.3,0-.4,0h-.3c0-.3-.3-.2-.4-.1-.2,0-.3,0-.5,0h0s.2,0,.2,0c.2.1.2.3.3.4,0,.1.3.2.3.4,0,.1-.2.5-.1.6v.2c.3,0,.2.1.3.3,0,.2,0,.2.1.3,0,.1,0,.2.1.3,0,.1.2.2.2.4.1.3.3.5.5.7.3.3.4.6.6.9,0,0,.2.4.1.5,0,.2.1-.1.3,0l.2.2h.2c0,.1.1.2.1.2.1,0,.2.2.3.3,0,.1.2.2.2.3,0,.1,0,0,.2.1.1,0,.2.1.3.2.1,0,.2.1.2.3,0,.1,0,.1,0,.2l-.2.2c0,.1-.3.2-.4.3-.2.2-.6.5-.8.5-.1,0-.2,0-.4,0-.2,0-.2,0-.3-.1-.1-.1-.2,0-.4-.2-.3-.1-.4-.5-.6-.7,0-.1-.2-.2-.2-.3,0-.1.1-.2,0-.4,0-.1-.1-.3-.2-.4l-.2-.2h-.1c-.1-.2-.2-.4-.3-.6,0-.2-.2-.3-.2-.5,0,0,0-.2-.1-.4,0-.3-.2-.7-.1-.9,0-.2-.2,0-.2-.2v-.2c-.3-.2-.7.7-.8.9-.1.2-.3.3-.5.6-.1.3-.3.5-.5.7-.1.1-.2.3-.3.4-.1.1-.1.1-.2.3,0,.2-.3.3-.4.5-.1.2,0,.3-.2.5h0c0,0,.2,0,.3,0,.2,0,.2,0,.4,0,.1,0,.3.1.4.2.3,0,.6.3,1,.3.2,0,.3,0,.5.1l.2.2c.3.2,0,.2.3.4,0,.4,0,.7,0,.9,0,.1,0,.2,0,.3,0,.4,0,.8,0,1.2,0,.4,0,.7.1,1.1.1.4,0,.7-.1,1.1,0,.2,0,.3,0,.5,0,.2,0,.4,0,.6,0,.2.2.4.3.5.1,0,.3,0,.5,0h.3c.3-.2.4-.5.7-.5.2,0,.4,0,.6,0,.2,0,.4.2.6.2.2,0,.3,0,.5,0,.2.1.6.2.8.3.2.1.1.3.1.5,0,.2.2.4.1.6,0,.3-.5.6-.8.6-.1,0-.1,0-.3,0-.2,0-.4,0-.6,0-.2,0-.4-.1-.6-.1h-.2c-.1,0-.2,0-.4,0-.1,0-.3,0-.4,0-.4,0-.6-.1-.9-.1v.2c0,0-.3,0-.3,0h-.3c0,0,.2-.5.2-.5h-.5c0,.1-.1.1-.2.1-.1,0-.1.1,0,.2v.2c-.1,0-.3,0-.4,0,0,.1,0,.4.2.5h0c0-.2,0-.2.2-.2v-.2c.2,0,.5-.1.7,0,0,.2,0,.4,0,.6,0,.2-.3.3-.3.5,0,.2,0,.2,0,.3.1.3,0,.7,0,1.1,0,.2,0,.7-.1.9.2,0,.2,0,.2.2,0,.2,0,.5,0,.7,0,.4,0,.8,0,1.2,0,.3,0,.5,0,.8,0,.2,0,.3,0,.5,0,.3,0,.5,0,.8,0,.2,0,.5,0,.7,0,.2-.1.4-.2.6,0,.1-.2.2-.2.3,0,.2,0,.3,0,.5-.4,0-.9-.2-1.3-.3h0c0-.3,0-.1,0-.3v-.4c0,0,0,0-.1-.1,0-.2,0-.4,0-.6,0-.3,0-.6,0-.9v-.2c0-.1,0-.1.1-.3,0-.2,0-.4,0-.6,0-.1,0-.4,0-.5-.1,0-.3.3-.4.3,0,0-.3,0-.4-.1,0,0-.2,0-.3,0-.5-.1-1-.2-1.5-.2-.2,0-.4,0-.6.1-.2,0-.3,0-.5,0-.2,0-.4,0-.6,0-.1,0-.1-.2-.2-.3-.1,0,0,.2-.1.3h-.5c-.3.2-.9.2-1.2.1-.2,0-.3,0-.6,0-.2,0-.4,0-.5,0h-.1c3.9,2.9,8.7,4.6,14,4.6,3.4,0,6.7-.7,9.6-1.9,0-.1,0-.2,0-.5,0-.3,0-.5,0-.8,0-.3,0-.3,0-.6,0-.5,0-.8,0-1.1,0-.2,0-.5.1-.7,0-.3,0-.8,0-1.1,0-.3,0-.7,0-1,0-.3,0-.9,0-1.2,0,0,.4-.1.3-.2,0,0-.7,0-.9,0v.2c-.2,0-.3,0-.4.1l-.2.2c-.2,0-.3-.1-.4-.1-.1,0-.4,0-.5,0-.1,0-.2,0-.3,0-.2,0-.3.1-.5.1-.2,0-.3,0-.4-.2l-.3-.2c-.1-.1-.1-.2-.2-.3,0-.1,0-.1-.1-.2,0-.1,0-.3,0-.5.2,0,.2,0,.4,0,.2,0,.2-.2.4-.2.3,0,.6,0,.9,0,.2,0,.4,0,.7-.1.1,0,.2,0,.3,0,.2,0,.4,0,.6,0,0,0,.6.2.4,0,0-.1.2-.3.2-.4h0c0-.1,0-.2,0-.2,0-.4,0-.8,0-1.2h.2c-.1-.2,0-.4-.2-.5-.1-.1-.2,0-.2-.3,0-.1,0-.3,0-.4,0-.1,0-.2,0-.4,0-.3-.2-.4-.4-.6l-.2-.3-.2-.3v-.2c-.1,0-.2-.2-.2-.2h-.2c0-.3,0-.3,0-.4v-.2c.1,0,.3-.2.3-.2.1,0,.3,0,.5,0,.2,0,.3.3.5.4.2.1.3.1.5.3h.1c0-.1.2-.1.2-.1.2,0,.5.1.7.2.3.1.1.2.2.4v.2c.2.2,0,.3,0,.5-.1,0-.1,0-.3,0v.2c0,0-.4-.2-.4-.2l-.3.2c0,.2-.2.5-.2.5l.2.2.3.3c.2.1.1-.2.2-.3,0-.1.2-.3.3-.4.2-.2.1,0,.2.1,0,.1.1.1.1.3,0,.2-.2.4-.2.7h-.4c-.1,0-.2,0-.3,0v.3c-.2.1,0,.3,0,.4,0,.1-.1,0-.2,0,0-.2,0-.2-.2-.2l-.2.4c0,.2.2.2.2.4,0,.2.1.3.3.5.1,0,.3,0,.4-.2h.4c0-.1.2-.1.2-.1,0,.3-.1.5,0,.8.2.2,0,.6,0,.9h-.2c0,.1,0,.5,0,.5,0,.4-.2.7-.1,1.1,0,.3,0,.5,0,.8,0,.3,0,.5,0,.8,0,.3,0,.5,0,.8,0,.1,0,.3,0,.4,0,.2,0,.2,0,.4,0,.2,0,.4,0,.7,0,.2,0,.2,0,.4,0,.2,0,.3,0,.6,0,.1-.1.2-.2.3,0,.1,0,.2-.1.3.6-.3,1.2-.6,1.8-1,0-.2,0-.4,0-.6,0-.4,0-.6,0-.8v-.4c0-.1,0-1.7,0-1.9,0-.2.2-1.3,0-1.4-.1,0,0-.5,0-.6,0-.2,0-.4,0-.6,0-.4,0-1.3,0-1.6,0-.3.1-.5,0-.7,0-.2,0-.6,0-.7,0-.2,0-.3,0-.5v-.3s0-.1,0-.1v-.2s0-.1,0-.1v-.3c0,0-.2-.2-.2-.2v-.3c.1,0,.1-.2.1-.2,0-.2,0-.3.3-.2v-.2s-.1,0-.1,0l-.2-.2c0-.1.1-.3,0-.3-.1,0-.3,0-.4,0-.1,0-.2-.2-.3-.3h-.2c0-.1-.2-.4-.6-.6,0-.2-.2-.4-.1-.5h0c0,0,0-.1,0-.1h.1c0-.1,0-.2,0-.2h.2s.2,0,.2,0h.2c0,0,.1.2.1.2h.2c.1.1.3.1.4.1.1,0,.3,0,.4,0,.1,0,.2,0,.3,0,.2,0,.4.2.6.3,0-.1-.1-.3-.2-.4v-.2s0-.2,0-.2v-.4c.1,0,0-.2,0-.2h0c0-.1-.1-.1-.2-.3v-.2c.1,0-.1.1-.1.1,0,0,0-.1,0-.3v-.3c.1,0,.3.2.5.3h0c0-.6.3-.9.5-1.2.1-.2.2-.4.4-.5.2-.1.4-.2.6-.3.1,0,.2-.3.3-.4.1-.1.3-.1.5-.2.4,0,.7,0,1.1,0,.4,0,.7,0,1.1,0,.4,0,.9.2,1.7.4.1,0,.2.2.3.3,0,.1,0,.2.2.3,0,.1.2.2.3.4h.1c0-.2-.1-.3-.2-.5v-.2c0-.1,0-.2,0-.4,0-.2,0-.5,0-.7,0-.2.1-.3.1-.5,0-.2,0-.4,0-.5,0-.3,0-.6,0-1,0-.2,0-.3-.1-.5,0-.2,0-.3-.2-.3-.1,0-.3,0-.4,0-.1,0-.3.1-.4.2-.4.1-.8.3-1.2.3-.2,0-.2,0-.4-.1-.2,0-.3-.1-.5-.1-.2,0-.4,0-.6.1-.2,0-.3.1-.4,0-.1,0-.3-.1-.4-.2v-.2c-.2-.1-.2-.4-.3-.4v-.3c.3,0,.3,0,.6,0,.2,0,.4,0,.6,0,.2,0,.3,0,.4-.1.1,0,.1,0,.3,0,.1,0,.3,0,.4,0,.4-.1.7-.2,1-.2.3,0,.7,0,1,0,.3,0,.4.2.7.3h.2c0-.3,0-.3-.1-.4,0,0,0-.2,0-.3,0-.2,0-.4.1-.5,0-.1,0-.1,0-.3v-.3c-.1-.2-.1-.4-.2-.5,0-.2,0-.3,0-.5-.2,0-.2.1-.4.2-.1,0,0,.2-.3.2-.4.1-1.1.4-1.5.3-.2,0-.4,0-.5,0s-.3,0-.4,0h-.1c0,0-.3,0-.3,0-.2,0-.4,0-.6,0-.2,0-.8-.5-.8,0,.1,0,.1.1.2.3v.2s0,.2,0,.2c0,.1,0,.2,0,.4,0,.4-.4.6-.4,1,0,.1,0,.4,0,.5,0,.1,0,.1,0,.3,0,.1-.1.2-.2.3,0,.2-.1.2-.3.3-.2.1-.4.1-.7.2-.2.1-.4.3-.6.4-.1,0,0,0-.2,0-.3.1-.7.2-1,.4-.3.2-.6.5-1,.4-.3,0-.5,0-.8,0-.2,0-.4-.1-.6-.2-.1,0-.3-.1-.5-.3-.1-.1-.2-.3-.3-.4-.2-.2-.4-.5-.7-.7l-.2-.3c-.1-.2-.2-.3-.3-.4,0-.1-.2-.2-.3-.3v-.3c-.2-.2-.3-.1-.3-.4,0-.3.2-.6.3-.8.1-.2,0-.4.3-.6.1-.1.2-.3.3-.5,0-.1,0-.2,0-.4,0-.1.1,0,.2-.2.1-.2.4-.3.7-.2h0c.2,0-.2,0-.1-.2h.1c0-.1.1-.3.1-.3.3,0,.6-.1.9-.1.4,0,.6-.2.9-.3h.3c.1-.1.2,0,.3,0,.1,0,.3,0,.5,0,.4,0,.7.1,1.1.3.1,0,.3.2.4.2l.3.2c.2,0,.3.2.5.3.2.1.3.3.5.4.2.1.2.2.3.4.2,0,0-.7.2-.7.1,0,.2,0,.4,0,.2,0,.4,0,.6,0,.2,0,.4,0,.6-.1h.3c.1-.1.3-.1.4-.2.2,0,.3,0,.5,0,.2,0,.3,0,.5,0h.3c.2-.2.4-.1.6-.1.2,0,0,0,.7,0,.2,0,.2,0,.5,0,.2.1.2.3.4.2,0,0,.2-.2.3-.2.2,0,.4,0,.4,0,0-.1,0-.3,0-.4-.1-.3-.3-.1-.8,0-.1,0-.2,0-.3.2-.1,0-.1,0-.1-.1v-.2c0-.1,0-.3,0-.4v-.2s0-.2,0-.2h.3c0-.3-.4-.5-.6-.6-.1-.1-.3-.5-.4-.7,0,0,0-.1-.1-.2-.2,0-.2,0-.3-.1-.2-.2-.2-.2-.4-.4-.1-.2,0-.3,0-.4.2-.2.2-.1.4-.2.2,0,.3,0,.5,0,.1,0,.3.1.5.2.2,0,.3.1.5.2.2.1.4.1.6.3.1,0,.3,0,.4,0,.2,0,.3,0,.4.3M35.4,37.9h0c0,0,0,.2,0,.2-.1,0-.3,0-.3,0v-.2c0,0-.2-.1-.2-.1.1-.1,0-.1.2-.1h0s.2,0,.2,0c.1,0,0,.1,0,.2M33.2,28.4c0-.2.3-.4.4-.5v-.4c.1,0,.4-.1.4-.1,0,0,.2.4.2.6,0,.2,1,.3,1.1.5.1.2-.2.4-.4.5-.3.1-.4,0-.7,0-.2,0-.5,0-.8,0-.1-.2-.3-.3-.3-.4M13.9,34.2c.3,0,.6,0,.8,0l.4.2c.1,0,.2.1.4.2.2,0,.3,0,.5.1.2,0,.1,0,.2.2,0,.1,0,.2,0,.3v.2c-.1,0-.3.1-.3.1l-.3.2c-.5,0-1,0-1.5,0-.3,0-.6,0-.9,0-.3,0-.7,0-1,0-.3,0-.6,0-.9,0-.3,0-.7,0-1,.1-.2,0-.3.1-.6.1-.3,0-.5,0-.8.1-.2,0-.4,0-.6,0-.2,0-.4.1-.7.1h0s-.2.2-.2.2c-.4,0-.8,0-1.2,0-.3,0-.3,0-.5-.2-.2-.1-.3,0-.5-.3-.2,0-.3,0-.5-.2h-.2c0-.1,0-.3,0-.3,0-.1-.3-.3-.4-.4v-.4c.2,0,.3,0,.4,0,.1,0,.2,0,.3,0,.3,0,.7,0,1,0,.2,0,.2.2.4.2.2,0,.4,0,.5,0,.2,0,.3,0,.5,0,.4,0,.9,0,1.3,0,.2,0,.3,0,.5,0,.3,0,.6,0,.9-.1.1,0,.3,0,.3-.1v-.3c0-.2-.2-.3-.2-.5,0-.2,0-.3-.3-.5-.6-.6-.4-.1-.6-.8-.1-.3-.4-.2-.5-.6,0-.1.5-.2.7-.4.1,0,.2,0,.3.1.1,0,.2,0,.3.1.1,0,.2.2.3.3.1.1.2.2.4.3.2,0,.3.2.5.3h.3c.2.2.3.4.5.6v.2c.1,0,.2.3.2.3,0,.2,0,.3,0,.5,0,0-.2.3,0,.3.2,0,.4,0,.6,0,.1,0,.3,0,.4,0,.2,0,.5,0,.7-.3M12.6,10s0,0,0,.3v.3s-.2,0-.2,0c0,0-.2-.4-.4-.3v-.3s.3-.2.3-.2l.4.2ZM31,12.8c0-.2,0-.4,0-.5.3,0,.4-.1.4-.1h.2c0,.3,0,.3.3.4.3,0,.3.3.4.5,0,0-.4,0-.5,0-.3,0-.6-.1-.8-.2M30,46.4v-.3c0,0,.4,0,.4-.2,0,0,.4,0,.5.2,0,0,0,.4.3.2h.2c0,0,0,.2,0,.2,0,0-.3.2-.2.3,0,0-.7,0-.8-.4,0,0-.1-.4-.4-.1M25.8,18.4c0,.3,0,.6,0,.9-.3,0-.8-.2-.9-.5.1-.3.4-.2.6-.5h0s0,0,0,0c.3,0,0,0,.3,0M27.5,20.7c.3.2.1.2.2.5v.2c.2.2.1,1.3,0,1.4,0,.2.2.5,0,.7,0,0,0,1,0,1.4h0c0,.4,0,.7.2.9.2.2,0,.6,0,.9h-.2c0,.1,0,.5,0,.5,0,.4-.1.7,0,1.1,0,.2,0,.4,0,.5v.3s0,.4,0,.4c-.1.4,0,.7,0,1.1s0,.3,0,.4c-.1.5,0,1,0,1.5,0,.2.1.4,0,.6,0,.1-.2.1-.2.3,0,.1,0,.2-.1.3,0,0,0,0-.2.2,0,0-.2.3-.3.4-.1.2-.3.3-.5.4-.2,0-.2,0-.3-.1-.3-.1-.1-.5-.1-.7,0-.3,0-.5,0-.8,0-.3-.1-.3-.1-.6,0-.4,0-.8,0-1.2,0-.2.1-.4.2-.7,0-.3,0-.8,0-1.1,0-.3,0-.7,0-1v-.3c0-.2,0-.6,0-.7h.2l.2-.3h0c0-.2.2-.3.2-.3h0c0-.1-.3-.3-.4-.3,0,0-.3,0-.4,0h.1c0,.1,0,.4,0,.4h0c-.1.1-.2.1-.5.2-.2,0-.3,0-.4.1l-.2.2c-.2,0-.3-.1-.5-.2-.2,0-.4,0-.5,0-.1,0-.2,0-.3,0-.2,0-.4.2-.6.1-.4,0-.8-.4-.9-.7,0-.1,0,0-.1-.2,0-.1,0-.3,0-.5.2,0,.3,0,.5,0,.2,0,.2-.2.4-.2.3,0,.6,0,.9,0,.3,0,.5,0,.7,0,.1,0,.2,0,.4,0,.2,0,.4,0,.6,0,0,0,.6.2.4,0,0-.1.2-.3.2-.4h0c0-.1,0-.2,0-.2,0-.4,0-.8,0-1.2h.2c-.2-.1,0-.3-.2-.5-.1-.1-.2,0-.2-.3,0-.1,0-.3,0-.4,0-.1,0-.2,0-.4,0-.3,0-.5-.2-.7l-.3-.2c-.1-.1-.2-.3-.3-.5-.2-.2-.2-.3-.4-.4,0-.1,0-.2.1-.2v-.2c.1,0,.2-.1.3-.2.1,0,.4,0,.5,0,.2,0,.3.2.5.4.2.1.4,0,.5.3h0c0-.1.3-.1.3-.1.2,0,.5.2.7.3M31.8,35.7h.3c0,.1,0,.4,0,.4h0c0,.1,0,.3,0,.3,0,.1-.2.3-.3.4,0,.1-.1.3-.2.4l-.2.2c-.1,0-.3,0-.4,0-.2,0-.3,0-.5,0-.2,0-.3,0-.5,0h-.2s-.2.1-.2.1c-.1,0-.3,0-.4,0-.1,0-.3,0-.4,0h-.3c0-.3-.3-.2-.4-.1-.2,0-.3,0-.5,0l-.2.2h.2c0,0,.3.4.3.4,0,0,.1.2.2.3v.2c.1,0,.1.2.1.2,0,.1-.2.2-.2.3v.2c.2.1.3.1.3.3,0,.1,0,.2.1.3,0,.1,0,.2.1.3,0,.1.1.2.2.4.1.3.3.5.5.7.3.3.5.6.8.9,0,0,0,.2,0,.4,0,.1,0-.2.4.2l.2.2h.1c0,0,.2.2.2.2h0c0,.1.1.2.2.3l.2.2v.2c.2.1.4.2.5.3.1,0,.2.1.2.2,0,.1,0,.2-.2.3-.1.2-.2.3-.3.4-.2.2-.6.4-.9.4-.1,0-.2,0-.4,0-.2,0-.2,0-.3-.2-.1-.1-.5-.1-.6-.2l-.2-.3c0-.1-.2-.3-.3-.5,0-.1,0-.2-.1-.5,0-.1,0-.3-.2-.4l-.3-.2h-.1c-.1-.2-.2-.4-.2-.6,0-.2-.1-.3-.2-.5,0-.2,0-.3-.1-.4,0-.2,0-.3-.1-.5,0,0,0-.2,0-.4,0-.1-.2-.2-.3-.4,0-.2-.6.6-.7.7-.3.5-.7.9-1.1,1.3-.1.1-.2.3-.3.4-.2.2-.2.2-.2.3,0,0-.3.3-.4.5-.1.2-.1.4-.2.6v.3c-.2,0-.2,0-.3.2,0,0-.5.6-.6.8l-.2.2h-.2c0,.1-.2.2-.2.2,0,0,0-.2-.1,0l-.4.3c0,0-.3.2-.5.3-.1,0-.3,0-.4-.1-.1,0-.2,0-.3,0l-.2-.3.2-.2c0,0,0-.2.2-.3l.2-.3c0-.1.3-.3.4-.4.1-.2.2-.4.4-.6.2-.3.6-.8.7-.9.3-.3.6-.6.9-1,.2-.3.5-.6.7-.9,0,0,.2-.2.2-.3,0-.1,0-.2.1-.3l.2-.2c0-.1.1-.2.2-.3.2-.3.3-.5.5-.8.2-.3.4-.7.6-1.1,0-.1,0-.2,0-.4v-.2s0-.2,0-.2h-.1c-.2,0-.1,0-.3,0-.2,0-.3,0-.5,0-.2,0-.3,0-.5,0h-.3s-.3-.3-.3-.3v.2s-.2,0-.2,0c-.3,0-.5,0-.8,0h-.2c0-.2-.2-.5-.4-.6h-.1c0-.1,0,0-.1-.2h0c0,0,0-.5,0-.5v-.2c.4,0,.6.1.8.2.2,0,.4,0,.7,0,.1,0,.2,0,.3,0h.1c0,0,.2,0,.2,0,.2,0,.2-.1.3-.2.1,0,.3,0,.4,0,.3,0,.5,0,.8,0h.4c.2,0,.4,0,.5,0,.2,0,.2,0,.3,0,.3,0,.5,0,.8,0,.2,0,.3-.1.4-.2,0-.1,0-.2,0-.4,0-.3,0-.6,0-.8,0-.8,0-1,0-1.1,0-.7,0-.2,0-.5,0-.1,0-.2,0-.5,0-.3,0-.6,0-.9,0-.4,0-.5,0-.8v-.4c0-.1,0-1.6,0-1.7,0-.2.2-1.2,0-1.3-.1,0,0-.5,0-.6,0-.2,0-.4,0-.5,0-.3,0-1.2,0-1.5,0-.3.1-.4,0-.7,0-.1,0-.5,0-.7,0-.1,0-.3,0-.4v-.3s0,0,0,0v-.2h0c-.1-.2,0-.3,0-.4v-.2c0-.2,0-.3.1-.5,0-.2,0-.2-.1-.4v-.2c-.2,0-.3-.1-.4-.1-.1,0-.2-.2-.3-.3h-.2c0-.1-.2-.4-.6-.6,0-.1-.2-.3-.1-.5h0s0,0,0,0h.1c0,0,0-.1,0-.1h.2s.2,0,.2,0h.2c0,0,.1.2.1.2h.2c.1.1.3.1.4.1.1,0,.3,0,.4,0,.1,0,.2,0,.3,0,.2,0,.5.2.7.4l.2.2c0,0,0,0,0,.2,0,.2.2.2.3.3.1,0,0,.2.1.3v.3c0,.2-.2.3-.3.4,0,.2.2.3.2.5,0,.1,0,.3,0,.4,0,.2,0,.4,0,.5,0,.2,0,.4,0,.6,0,.2,0,.3,0,.6,0,.2,0,.4,0,.6,0,.3,0,.7,0,1,0,.4,0,.8,0,1.2,0,.2,0,.4,0,.5,0,.1,0,.1,0,.2,0,.2,0,.4,0,.5,0,.4,0,.7,0,1.1,0,.5,0,1,0,1.4,0,.2,0,.5,0,.8.1.5-.2,1.1.2,1.5,0,.2,0,.4,0,.6,0,.2,0,.2-.1.4,0,.1-.1.2-.2.3l.2.2c0,.2,0,.3,0,.4,0,.1-.2.2-.3.3v.2s0,0,.2.1c.3,0,.4.1.5.2.1,0,.1.2.3.2.2,0,.1,0,.3,0M30.1,24.5h.3c0-.2-.3-.5-.4-.5l-.4.3h-.2c0,0-.1.1-.1.1v.2c0,.4.4,0,.5-.1h.3ZM11.5,20c-.2,0-.1,0-.1.1,0,.1.2.1.3,0,.1,0,.2,0,.3,0v-.2c0-.1,0,0-.2,0h-.2s-.2.2-.2.2ZM11.6,19.8h0,0ZM23.8,11.6v.2c-.1,0-.1,0-.1,0v.2c0,0,.5,0,.5,0h.3c0,.1,0,0,0,0h0c0-.1-.3-.3-.3-.3h-.5ZM.6,22.3c0-.5.2-1.1.3-1.6h0c-.1.5-.2,1-.3,1.6,0,0,0,0,0,0M37,4.9c.4.3.9.6,1.3.9,0,0,0,0,0,0-.4-.3-.9-.6-1.3-.8M47,17.1c.1.3.2.5.3.8,0-.3-.2-.5-.3-.8h0ZM17.6,9.9h0s0,0,0,0h0s0,0,0,0ZM15.6,9.1h0c0-.1.1-.2.1-.2.3,0,.6,0,.8,0,.2,0,.5,0,.7,0,.2-.1.6,0,.9,0v.2c.2,0,.2,0,.4-.2.2-.1.3,0,.6,0,.2,0,.4.2.5.1.1,0,.2-.1.3,0h.2c.2,0,0-.2,0-.3v-.2c0-.2-.1-.3,0-.4v-.3c0,0,0-.2,0-.2v-.2c0-.2,0-.3,0-.4,0-.2.1-.5.1-.6h0s0,0,0,0h-.1c-.1-.1-.1.3-.2.3-.2,0-.3,0-.4,0h-.1s-.2,0-.2,0c-.2,0-.3,0-.5,0-.1,0-.3,0-.4,0-.1,0-.5.1-.6.1-.1,0-.3,0-.4,0,0,0-.2-.1-.3-.1-.5,0-.2.1-.5,0-.1,0-.2-.1-.4,0-.2,0-.3,0-.5,0,0,.1,0,.2,0,.3,0,.1,0,.2,0,.4,0,.1,0,.3,0,.4,0,.2,0,0,0,.4v.3c.2.1.2,0,.3.2v.2s0,.2,0,.2h0ZM13.7,6.1v.4c0,0,.1,0,.3,0v-.2c.1,0,.4,0,.4,0l-.2-.4h-.3c0,.1-.2.1-.2.2M20.2,5.6v-.2s0-.1,0-.1c-.1-.2,0-.4-.1-.6v-.2c0-.2,0-.3,0-.4,0-.2,0-.6-.1-.7,0-.1,0-.3,0-.4,0-.2,0-.3-.1-.5l-.2-.2h0c-1.5.2-3,.7-4.5,1.3h0c0,.2.2.4.2.5,0,.1,0,.3,0,.5,0,.3,0,.6,0,.9v.4c.2.1.3.4.4.4l.3-.2c.2,0,.3,0,.4,0,.1,0,.2,0,.4,0,.1,0,.1,0,.3,0,.1,0,.2-.1.3-.2.1,0,.3,0,.4-.1.3,0,.4-.2.7-.3.1,0,.4-.1.5-.2.1,0,.1,0,.2,0,.1,0,.2,0,.3,0,.1,0,.2,0,.3.1h.2c0,0,.1.1.1.1.1,0,.1.2.3.3M13.6,4c.4-.2.8-.4,1.3-.6h0c-.4.2-.8.4-1.3.6M34.8,47.4h0s0,0,0,0h0ZM37.4,37.8c0,.2-.1.2,0,.3.2.2.4.2.3.2.1-.2.3-.4.4-.4h.2c0-.2,0-.3.1-.5,0-.2,0-.4,0-.5v-.3c-.2-.1-.2-.1-.3-.3-.2,0-.2.2-.2.3,0,.1-.1.2-.1.4.1.1.1.2.1.4v.3c0,.1-.2,0-.3,0h-.2Z"/>
  <g>
    <path class="cls-2" d="M62,7.4c0-.6,0-1.1.2-1.5.1-.4.3-.8.5-1.1.2-.3.5-.5.7-.7.3-.2.5-.3.8-.4s.5-.1.8-.2c.2,0,.4,0,.6,0,.5,0,1,0,1.5.2.5.2.9.4,1.2.7s.6.7.8,1.1c.2.4.3.9.3,1.5s0,.9-.2,1.3-.3.7-.5,1c-.2.3-.5.5-.7.8-.3.2-.5.4-.8.6-.4.3-.7.5-1,.7-.3.2-.5.4-.7.5-.2.2-.4.3-.5.4-.1.1-.2.3-.3.4h4.8v1.9h-7.5c0-.3,0-.7.1-1,0-.3.2-.7.3-1,.2-.4.4-.7.7-1.1.3-.4.8-.8,1.4-1.2.5-.4.9-.7,1.3-.9s.6-.5.9-.8c.2-.2.4-.5.5-.7.1-.2.2-.5.2-.8s0-.4,0-.6c0-.2-.2-.4-.3-.5-.1-.2-.3-.3-.5-.4-.2,0-.4-.1-.7-.1-.4,0-.7,0-.9.2-.2.1-.4.3-.5.5,0,.2-.2.4-.2.7,0,.2,0,.5,0,.7h-2.1Z"/>
    <path class="cls-2" d="M72.9,12h0c0,.4.2.7.4.8.2.2.5.3.8.3s.4,0,.7-.2c.2-.1.4-.3.6-.5.2-.2.3-.6.4-.9.1-.4.2-.9.2-1.5h0c-.2.3-.6.6-1,.7-.4.1-.8.2-1.1.2-.5,0-1,0-1.4-.3-.4-.2-.8-.4-1-.8s-.5-.7-.7-1.1c-.2-.4-.2-.9-.2-1.3,0-.7,0-1.3.3-1.8.2-.5.5-.9.8-1.2.3-.3.7-.6,1.2-.7.5-.2,1-.2,1.5-.2s1.2.1,1.6.3c.4.2.8.5,1.1.8s.5.7.7,1.1c.2.4.3.8.3,1.3,0,.4.1.8.1,1.2s0,.7,0,1c0,1.1-.1,2-.3,2.7s-.5,1.3-.9,1.7c-.4.4-.8.8-1.3.9-.5.2-1,.3-1.5.3s-.9,0-1.3-.2c-.4-.1-.7-.3-1-.6-.3-.2-.5-.5-.7-.9-.2-.4-.3-.7-.3-1.2h2.2ZM72.7,7.2c0,.4,0,.8.1,1s.2.5.4.6c.1.1.3.2.5.3.2,0,.4,0,.6,0s.4,0,.6-.1c.2,0,.4-.2.5-.3.2-.1.3-.3.4-.6,0-.2.1-.5.1-.8,0-.6-.1-1.1-.4-1.5-.3-.4-.7-.5-1.3-.5s-.3,0-.5,0c-.2,0-.3.1-.5.3-.2.1-.3.3-.4.6s-.2.6-.2,1Z"/>
    <path class="cls-2" d="M82.1,6.3h1.4v1.6h-1.4v4.5c0,.1,0,.2,0,.3,0,0,0,.2.1.2s.1,0,.3.1.3,0,.5,0,.1,0,.2,0c0,0,.1,0,.2,0v1.6c-.2,0-.3,0-.5,0-.2,0-.3,0-.5,0h-.3c-.5,0-.8,0-1.1-.1s-.5-.2-.7-.4c-.2-.2-.3-.3-.3-.6,0-.2,0-.5,0-.7v-5h-1.1v-1.6h1.1v-2.2h2.2v2.2Z"/>
    <path class="cls-2" d="M92.2,14.6h-2.2v-5c0-.2,0-.3,0-.5,0-.2,0-.4-.2-.5,0-.2-.2-.3-.4-.4-.2-.1-.5-.2-.8-.2-.5,0-.9.2-1.2.5-.3.3-.5.8-.5,1.4v4.7h-2.2V3.4h2.2v4h0c0-.2.2-.3.3-.5.1-.2.3-.3.5-.4.2-.1.4-.2.7-.3.3,0,.5-.1.8-.1s.8,0,1.1.2c.4.1.7.3.9.5s.5.5.6.9c.2.3.2.7.2,1.2v5.7Z"/>
    <path class="cls-2" d="M98.6,3.4h5.4c.7,0,1.3,0,1.7.3.4.2.8.4,1,.7.3.3.4.6.5.9.1.3.2.6.2.9s0,.7-.1,1c0,.3-.2.5-.4.7-.1.2-.3.3-.5.4s-.3.2-.4.2c.3.1.6.3.8.5.2.2.4.4.5.7.1.2.2.5.3.8,0,.3,0,.5,0,.8,0,.4,0,.9-.3,1.3-.2.4-.4.7-.7,1-.2.2-.3.3-.5.4-.2.1-.4.2-.7.3-.3,0-.6.2-1,.2s-.9,0-1.4,0h-4.7V3.4ZM100.8,7.8h2.7c.5,0,.9,0,1.2-.3.3-.2.5-.5.5-1s-.2-.8-.5-.9c-.3-.2-.7-.2-1.3-.2h-2.7v2.4ZM100.8,12.6h2.9c.6,0,1-.1,1.3-.4.3-.3.5-.7.5-1.2s0-.5-.1-.6c0-.2-.2-.3-.4-.4-.2-.1-.3-.2-.5-.2s-.4,0-.6,0h-3v3Z"/>
    <path class="cls-2" d="M118.5,10.7c0,.7-.1,1.4-.3,1.9-.2.5-.5,1-.9,1.3-.4.3-.9.6-1.4.8-.6.2-1.2.2-1.9.2s-.5,0-.8,0c-.3,0-.6-.1-.9-.2-.3-.1-.6-.2-.9-.4-.3-.2-.6-.4-.8-.7-.3-.3-.5-.7-.6-1.2-.1-.5-.2-1-.2-1.5V3.4h2.4v7.2c0,.4,0,.7.2,1,.1.3.2.5.4.7s.4.3.6.4c.2,0,.5.1.8.1.8,0,1.4-.2,1.7-.6.3-.4.5-.9.5-1.6V3.4h2.4v7.3Z"/>
    <path class="cls-2" d="M122.4,11.1c0,.2,0,.3,0,.5,0,.2.2.4.3.6.2.2.4.3.7.5.3.1.7.2,1.2.2s.6,0,.8,0,.5-.1.7-.2c.2-.1.4-.2.5-.4.1-.2.2-.4.2-.7s0-.4-.1-.5c0-.1-.2-.3-.4-.4-.2,0-.4-.2-.6-.3s-.5-.1-.8-.2l-1.2-.3c-.5-.1-.9-.2-1.3-.3-.4-.1-.8-.3-1.1-.5s-.6-.5-.8-.9c-.2-.4-.3-.9-.3-1.5s0-.4,0-.7c0-.2.1-.5.2-.8s.3-.5.5-.7c.2-.2.5-.5.8-.6s.7-.3,1.2-.4c.4-.1,1-.2,1.6-.2s1.6.1,2.1.4c.6.2,1,.6,1.3.9s.6.8.7,1.2c.1.4.2.8.2,1.1h-2.2c0-.1,0-.3-.1-.5,0-.2-.1-.4-.3-.6-.2-.2-.4-.3-.7-.5-.3-.1-.7-.2-1.2-.2s-.4,0-.7,0-.4.1-.6.2c-.2.1-.3.2-.5.4-.1.2-.2.4-.2.6s0,.4.1.5c0,.1.2.3.3.3.1,0,.2.1.4.2.1,0,.3,0,.4.1l2.7.7c.4,0,.8.2,1.1.3.4.1.7.3.9.5.3.2.5.5.6.9.2.3.2.8.2,1.3s0,1-.3,1.4c-.2.4-.4.7-.7,1-.3.3-.6.5-.9.6-.3.2-.7.3-1,.4-.3,0-.6.1-.9.2s-.5,0-.7,0c-1,0-1.8-.1-2.5-.4-.6-.3-1.1-.6-1.5-1s-.6-.8-.7-1.2c-.1-.4-.2-.8-.2-1.2h2.2Z"/>
    <path class="cls-2" d="M132.6,14.6h-2.5l4-11.2h2.7l3.9,11.2h-2.5l-.7-2.3h-4.1l-.8,2.3ZM134,10.3h2.8l-1.4-4.4h0l-1.4,4.4Z"/>
    <path class="cls-2" d="M149,3.4h2.2v11.2h-2.3l-4.6-8h0v8h-2.2V3.4h2.5l4.4,7.8h0V3.4Z"/>
    <path class="cls-2" d="M64.8,30.1h-2.3v-11.2h2.3v11.2Z"/>
    <path class="cls-2" d="M74.2,30.1h-2.2v-5c0-.2,0-.3,0-.5,0-.2,0-.4-.2-.5,0-.2-.2-.3-.4-.4-.2-.1-.5-.2-.8-.2-.5,0-.9.2-1.2.5-.3.3-.5.8-.5,1.4v4.7h-2.2v-8.3h2.1v1.2h0c0-.1.2-.3.3-.4.1-.2.3-.3.5-.5.2-.1.4-.3.7-.4.3-.1.6-.2,1-.2s.8,0,1.1.2c.4.1.7.3.9.5s.5.5.6.9c.2.3.2.7.2,1.2v5.7Z"/>
    <path class="cls-2" d="M78.6,21.8h1.4v1.6h-1.4v4.5c0,.1,0,.2,0,.3,0,0,0,.2.1.2s.1,0,.3.1.3,0,.5,0,.1,0,.2,0c0,0,.1,0,.2,0v1.6c-.2,0-.3,0-.5,0-.2,0-.3,0-.5,0h-.3c-.5,0-.8,0-1.1-.1s-.5-.2-.7-.4c-.2-.2-.3-.3-.3-.6,0-.2,0-.5,0-.7v-5h-1.1v-1.6h1.1v-2.2h2.2v2.2Z"/>
    <path class="cls-2" d="M88.4,27.7c-.1.5-.3.9-.6,1.3-.3.3-.6.6-.9.8-.3.2-.7.4-1,.4-.4,0-.7.1-1.1.1-.6,0-1.1,0-1.6-.2-.5-.1-.9-.4-1.3-.8-.4-.4-.7-.8-.9-1.4-.2-.6-.3-1.3-.3-2.1s0-.4,0-.7,0-.6.2-.9c0-.3.2-.6.4-.9.2-.3.4-.6.7-.9.3-.3.7-.5,1.1-.6.4-.2.9-.2,1.5-.2s.8,0,1.3.2c.5.1.9.3,1.3.7s.7.8,1,1.4c.3.6.4,1.4.4,2.3v.4h-5.7c0,.2,0,.3,0,.6,0,.2.1.5.3.7.1.2.3.4.6.6.3.2.6.2,1,.2s.6,0,.9-.2c.3-.1.5-.4.5-.7h2.2ZM86.3,25.2c0-.3-.1-.6-.2-.8-.1-.2-.2-.4-.4-.5-.2-.1-.3-.2-.5-.3-.2,0-.4,0-.5,0-.5,0-.9.2-1.2.5s-.4.7-.5,1.3h3.4Z"/>
    <path class="cls-2" d="M89.8,21.8h2.1v1.4h0c.1-.2.2-.4.4-.6.1-.2.3-.4.5-.5.2-.2.4-.3.6-.4s.5-.1.8-.1.1,0,.2,0,.1,0,.2,0v2.2c0,0-.2,0-.3,0h-.3c-.4,0-.8,0-1,.2-.3.1-.5.3-.6.5-.1.2-.2.4-.3.6,0,.2,0,.5,0,.7v4.3h-2.2v-8.3Z"/>
    <path class="cls-2" d="M103.3,30.1h-2.2v-5c0-.2,0-.3,0-.5,0-.2,0-.4-.2-.5,0-.2-.2-.3-.4-.4-.2-.1-.5-.2-.8-.2-.5,0-.9.2-1.2.5-.3.3-.5.8-.5,1.4v4.7h-2.2v-8.3h2.1v1.2h0c0-.1.2-.3.3-.4.1-.2.3-.3.5-.5.2-.1.4-.3.7-.4.3-.1.6-.2,1-.2s.8,0,1.1.2c.4.1.7.3.9.5s.5.5.6.9c.2.3.2.7.2,1.2v5.7Z"/>
    <path class="cls-2" d="M112,28.5c0,.5,0,.8.1,1,0,.2.2.3.3.3v.3h-2.3c0,0,0-.2,0-.2,0,0,0-.1,0-.2,0,0,0-.1,0-.2s0-.2,0-.3c-.1.1-.3.3-.4.4-.2.1-.3.3-.6.4-.2.1-.5.2-.7.3-.3,0-.6.1-1,.1s-.6,0-.9-.1c-.3,0-.6-.2-.8-.4-.2-.2-.4-.4-.6-.8s-.2-.7-.2-1.1,0-.8.2-1.1.3-.6.5-.8c.2-.2.5-.4.8-.5.3-.1.6-.2,1-.3l2-.3c.2,0,.3,0,.5-.2.2,0,.3-.3.3-.5s0-.4-.1-.5c0-.1-.2-.2-.4-.3-.1,0-.3-.1-.5-.1-.2,0-.3,0-.5,0-.3,0-.5,0-.7.1-.2,0-.3.2-.4.3s-.2.2-.2.4c0,.1,0,.3,0,.4h-2.1c0-.6.2-1.1.4-1.5.2-.4.5-.7.9-.9.3-.2.7-.3,1.1-.4s.8,0,1.3,0,.6,0,1,0c.4,0,.7.2,1.1.3.3.2.6.4.9.7s.3.7.3,1.2v4.5ZM109.8,26.1c-.1,0-.3.2-.5.2-.2,0-.5.1-1,.2-.2,0-.4,0-.6.1-.2,0-.3.1-.5.2-.1,0-.2.2-.3.3,0,.1-.1.3-.1.6s0,.3.1.5c0,.1.2.2.2.3,0,0,.2.1.3.2.1,0,.2,0,.3,0,.2,0,.5,0,.7-.1.2,0,.4-.2.6-.3.2-.1.3-.3.4-.5.1-.2.2-.4.2-.7v-1.1Z"/>
    <path class="cls-2" d="M116.3,21.8h1.4v1.6h-1.4v4.5c0,.1,0,.2,0,.3,0,0,0,.2.1.2s.1,0,.3.1.3,0,.5,0,.1,0,.2,0c0,0,.1,0,.2,0v1.6c-.2,0-.3,0-.5,0-.2,0-.3,0-.5,0h-.3c-.5,0-.8,0-1.1-.1s-.5-.2-.7-.4c-.2-.2-.3-.3-.3-.6,0-.2,0-.5,0-.7v-5h-1.1v-1.6h1.1v-2.2h2.2v2.2Z"/>
    <path class="cls-2" d="M121.2,20.9h-2.2v-2h2.2v2ZM121.2,21.8v8.3h-2.2v-8.3h2.2Z"/>
    <path class="cls-2" d="M131.2,26c0,.7-.1,1.4-.3,1.9-.2.6-.5,1-.9,1.4s-.8.6-1.3.8c-.5.2-1,.3-1.6.3s-1.1,0-1.6-.3c-.5-.2-1-.4-1.3-.8s-.7-.8-.9-1.4c-.2-.5-.3-1.2-.3-1.9s.1-1.4.3-1.9c.2-.5.5-1,.9-1.4s.8-.6,1.3-.8c.5-.2,1-.3,1.6-.3s1.1,0,1.6.3c.5.2,1,.4,1.3.8s.7.8.9,1.4c.2.5.3,1.2.3,1.9ZM128.9,26c0-.3,0-.5,0-.8s-.1-.6-.3-.8c-.1-.2-.3-.5-.6-.6-.3-.2-.6-.2-1-.2s-.8,0-1,.2c-.3.2-.5.4-.6.6-.1.2-.2.5-.3.8s0,.6,0,.8,0,.6,0,.8c0,.3.1.6.3.8s.3.5.6.6c.3.2.6.2,1,.2s.8,0,1-.2c.3-.2.5-.4.6-.6.1-.2.2-.5.3-.8,0-.3,0-.6,0-.8Z"/>
    <path class="cls-2" d="M140.1,30.1h-2.2v-5c0-.2,0-.3,0-.5,0-.2,0-.4-.2-.5,0-.2-.2-.3-.4-.4-.2-.1-.5-.2-.8-.2-.5,0-.9.2-1.2.5-.3.3-.5.8-.5,1.4v4.7h-2.2v-8.3h2.1v1.2h0c0-.1.2-.3.3-.4.1-.2.3-.3.5-.5.2-.1.4-.3.7-.4.3-.1.6-.2,1-.2s.8,0,1.1.2c.4.1.7.3.9.5s.5.5.6.9c.2.3.2.7.2,1.2v5.7Z"/>
    <path class="cls-2" d="M148.7,28.5c0,.5,0,.8.1,1,0,.2.2.3.3.3v.3h-2.3c0,0,0-.2,0-.2,0,0,0-.1,0-.2,0,0,0-.1,0-.2s0-.2,0-.3c-.1.1-.3.3-.4.4-.2.1-.3.3-.6.4-.2.1-.5.2-.7.3-.3,0-.6.1-1,.1s-.6,0-.9-.1c-.3,0-.6-.2-.8-.4-.2-.2-.4-.4-.6-.8s-.2-.7-.2-1.1,0-.8.2-1.1.3-.6.5-.8c.2-.2.5-.4.8-.5.3-.1.6-.2,1-.3l2-.3c.2,0,.3,0,.5-.2.2,0,.3-.3.3-.5s0-.4-.1-.5c0-.1-.2-.2-.4-.3-.1,0-.3-.1-.5-.1-.2,0-.3,0-.5,0-.3,0-.5,0-.7.1-.2,0-.3.2-.4.3s-.2.2-.2.4c0,.1,0,.3,0,.4h-2.1c0-.6.2-1.1.4-1.5.2-.4.5-.7.9-.9.3-.2.7-.3,1.1-.4s.8,0,1.3,0,.6,0,1,0c.4,0,.7.2,1.1.3.3.2.6.4.9.7s.3.7.3,1.2v4.5ZM146.6,26.1c-.1,0-.3.2-.5.2-.2,0-.5.1-1,.2-.2,0-.4,0-.6.1-.2,0-.3.1-.5.2-.1,0-.2.2-.3.3,0,.1-.1.3-.1.6s0,.3.1.5c0,.1.2.2.2.3,0,0,.2.1.3.2.1,0,.2,0,.3,0,.2,0,.5,0,.7-.1.2,0,.4-.2.6-.3.2-.1.3-.3.4-.5.1-.2.2-.4.2-.7v-1.1Z"/>
    <path class="cls-2" d="M152.8,30.1h-2.2v-11.2h2.2v11.2Z"/>
    <path class="cls-2" d="M161.6,30.1h-2.3v-11.2h7.9v2h-5.6v2.5h4.9v2h-4.9v4.7Z"/>
    <path class="cls-2" d="M170.8,20.9h-2.2v-2h2.2v2ZM170.8,21.8v8.3h-2.2v-8.3h2.2Z"/>
    <path class="cls-2" d="M175,30.1h-2.2v-11.2h2.2v11.2Z"/>
    <path class="cls-2" d="M188.9,30.1h-2.2v-5c0-.6-.1-1-.3-1.3-.2-.2-.5-.4-.8-.4-.6,0-.9.2-1.2.5-.2.3-.3.7-.3,1.2v5h-2.2v-5c0-.2,0-.4,0-.6,0-.2,0-.4-.1-.5,0-.2-.2-.3-.4-.4-.2-.1-.4-.2-.8-.2s-.5,0-.6.1c-.2,0-.3.2-.4.3-.1.1-.2.3-.2.5,0,.2,0,.4,0,.6v5h-2.2v-8.3h2.1v1.2h0c0-.1.2-.3.3-.5.1-.2.3-.3.5-.5.2-.1.4-.3.7-.4s.6-.1.9-.1.6,0,.8,0c.2,0,.4.1.6.2.2.1.3.2.5.4.1.2.3.4.4.6,0-.1.2-.2.3-.4.1-.1.3-.3.4-.4.2-.1.4-.3.6-.4s.5-.1.9-.1.8,0,1.1.2c.4.1.7.3.9.5.3.2.5.5.6.9s.2.7.2,1.2v5.7Z"/>
    <path class="cls-2" d="M197.5,30.1h-2.3v-11.2h7.9v2h-5.6v2.5h4.9v2h-4.9v4.7Z"/>
    <path class="cls-2" d="M211.5,27.7c-.1.5-.3.9-.6,1.3-.3.3-.6.6-.9.8-.3.2-.7.4-1,.4-.4,0-.7.1-1.1.1-.6,0-1.1,0-1.6-.2-.5-.1-.9-.4-1.3-.8-.4-.4-.7-.8-.9-1.4-.2-.6-.3-1.3-.3-2.1s0-.4,0-.7,0-.6.2-.9c0-.3.2-.6.4-.9.2-.3.4-.6.7-.9.3-.3.7-.5,1.1-.6.4-.2.9-.2,1.5-.2s.8,0,1.3.2c.5.1.9.3,1.3.7s.7.8,1,1.4c.3.6.4,1.4.4,2.3v.4h-5.7c0,.2,0,.3,0,.6,0,.2.1.5.3.7.1.2.3.4.6.6.3.2.6.2,1,.2s.6,0,.9-.2c.3-.1.5-.4.5-.7h2.2ZM209.4,25.2c0-.3-.1-.6-.2-.8-.1-.2-.2-.4-.4-.5-.2-.1-.3-.2-.5-.3-.2,0-.4,0-.5,0-.5,0-.9.2-1.2.5s-.4.7-.5,1.3h3.4Z"/>
    <path class="cls-2" d="M217.7,24.4c0-.1,0-.3-.1-.4,0-.1-.1-.2-.2-.4-.1-.1-.2-.2-.4-.2-.2,0-.4,0-.7,0s-.5,0-.7,0c-.2,0-.3.1-.4.2,0,0-.2.2-.2.3,0,0,0,.2,0,.3,0,.2.1.4.4.5.3.1.6.2,1,.3s.8.2,1.3.3c.5,0,.9.2,1.3.4.4.2.7.4,1,.7s.4.7.4,1.2-.1,1.1-.4,1.5-.6.7-.9.9c-.4.2-.8.3-1.2.4-.4,0-.8.1-1.1.1-.5,0-.9,0-1.4-.1-.5,0-.9-.2-1.3-.5s-.7-.5-.9-.9c-.2-.4-.4-.8-.4-1.4h2.2c0,.4.1.6.4.9s.7.3,1.4.3.5,0,.7,0c.2,0,.3-.1.4-.2s.2-.2.2-.3,0-.2,0-.3c0-.2-.1-.4-.4-.5-.3-.1-.6-.2-.9-.3s-.8-.2-1.2-.3c-.4,0-.9-.2-1.2-.4-.4-.2-.7-.4-.9-.7-.3-.3-.4-.7-.4-1.2s0-.6.2-.9c.1-.3.3-.6.5-.9.3-.3.6-.5,1-.7.4-.2,1-.3,1.6-.3s.8,0,1.2.1.8.2,1.2.4c.4.2.7.5.9.8s.4.8.4,1.4h-2.1Z"/>
    <path class="cls-2" d="M224,21.8h1.4v1.6h-1.4v4.5c0,.1,0,.2,0,.3,0,0,0,.2.1.2s.1,0,.3.1.3,0,.5,0,.1,0,.2,0c0,0,.1,0,.2,0v1.6c-.2,0-.3,0-.5,0-.2,0-.3,0-.5,0h-.3c-.5,0-.8,0-1.1-.1s-.5-.2-.7-.4c-.2-.2-.3-.3-.3-.6,0-.2,0-.5,0-.7v-5h-1.1v-1.6h1.1v-2.2h2.2v2.2Z"/>
    <path class="cls-2" d="M228.9,20.9h-2.2v-2h2.2v2ZM228.9,21.8v8.3h-2.2v-8.3h2.2Z"/>
    <path class="cls-2" d="M235.4,30.1h-2.3l-3-8.3h2.4l1.7,6.1h0l1.8-6.1h2.3l-3,8.3Z"/>
    <path class="cls-2" d="M245.9,28.5c0,.5,0,.8.1,1,0,.2.2.3.3.3v.3h-2.3c0,0,0-.2,0-.2,0,0,0-.1,0-.2,0,0,0-.1,0-.2s0-.2,0-.3c-.1.1-.3.3-.4.4-.2.1-.3.3-.6.4-.2.1-.5.2-.7.3-.3,0-.6.1-1,.1s-.6,0-.9-.1c-.3,0-.6-.2-.8-.4-.2-.2-.4-.4-.6-.8s-.2-.7-.2-1.1,0-.8.2-1.1.3-.6.5-.8c.2-.2.5-.4.8-.5.3-.1.6-.2,1-.3l2-.3c.2,0,.3,0,.5-.2.2,0,.3-.3.3-.5s0-.4-.1-.5c0-.1-.2-.2-.4-.3-.1,0-.3-.1-.5-.1-.2,0-.3,0-.5,0-.3,0-.5,0-.7.1-.2,0-.3.2-.4.3s-.2.2-.2.4c0,.1,0,.3,0,.4h-2.1c0-.6.2-1.1.4-1.5.2-.4.5-.7.9-.9.3-.2.7-.3,1.1-.4s.8,0,1.3,0,.6,0,1,0c.4,0,.7.2,1.1.3.3.2.6.4.9.7s.3.7.3,1.2v4.5ZM243.8,26.1c-.1,0-.3.2-.5.2-.2,0-.5.1-1,.2-.2,0-.4,0-.6.1-.2,0-.3.1-.5.2-.1,0-.2.2-.3.3,0,.1-.1.3-.1.6s0,.3.1.5c0,.1.2.2.2.3,0,0,.2.1.3.2.1,0,.2,0,.3,0,.2,0,.5,0,.7-.1.2,0,.4-.2.6-.3.2-.1.3-.3.4-.5.1-.2.2-.4.2-.7v-1.1Z"/>
    <path class="cls-2" d="M250,30.1h-2.2v-11.2h2.2v11.2Z"/>
    <path class="cls-2" d="M62,38.5c0-.6,0-1.1.2-1.5.1-.4.3-.8.5-1.1.2-.3.5-.5.7-.7.3-.2.5-.3.8-.4s.5-.1.8-.2c.2,0,.4,0,.6,0,.5,0,1,0,1.5.2.5.2.9.4,1.2.7s.6.7.8,1.1c.2.4.3.9.3,1.5s0,.9-.2,1.3-.3.7-.5,1c-.2.3-.5.5-.7.8-.3.2-.5.4-.8.6-.4.3-.7.5-1,.7-.3.2-.5.4-.7.5-.2.2-.4.3-.5.4-.1.1-.2.3-.3.4h4.8v1.9h-7.5c0-.3,0-.7.1-1,0-.3.2-.7.3-1,.2-.4.4-.7.7-1.1.3-.4.8-.8,1.4-1.2.5-.4.9-.7,1.3-.9s.6-.5.9-.8c.2-.2.4-.5.5-.7.1-.2.2-.5.2-.8s0-.4,0-.6c0-.2-.2-.4-.3-.5-.1-.2-.3-.3-.5-.4-.2,0-.4-.1-.7-.1-.4,0-.7,0-.9.2-.2.1-.4.3-.5.5,0,.2-.2.4-.2.7,0,.2,0,.5,0,.7h-2.1Z"/>
    <path class="cls-2" d="M72.3,40.9v-1.7h7.8v1.7h-7.8Z"/>
    <path class="cls-2" d="M82.6,36.5h.3c.5,0,1,0,1.3-.2.3-.1.6-.3.8-.5.2-.2.3-.4.4-.6,0-.2.1-.4.1-.6h1.8v11h-2.2v-7.6h-2.6v-1.5Z"/>
    <path class="cls-2" d="M91.2,36.5h.3c.5,0,1,0,1.3-.2.3-.1.6-.3.8-.5.2-.2.3-.4.4-.6,0-.2.1-.4.1-.6h1.8v11h-2.2v-7.6h-2.6v-1.5Z"/>
    <path class="cls-2" d="M103.6,40.1c0-.9,0-1.6.3-2.3.2-.6.5-1.2.8-1.6s.7-.8,1.1-1,.8-.5,1.2-.6c.4-.1.8-.2,1.1-.3.4,0,.7,0,.9,0s.6,0,.9,0c.4,0,.7.1,1.1.3.4.1.8.3,1.2.6.4.3.7.6,1.1,1,.3.4.6,1,.8,1.6.2.6.3,1.4.3,2.3s0,1.6-.3,2.3c-.2.6-.5,1.2-.8,1.6-.3.4-.7.8-1.1,1-.4.3-.8.5-1.2.6-.4.1-.8.2-1.1.3s-.7,0-.9,0-.6,0-.9,0-.7-.1-1.1-.3c-.4-.1-.8-.3-1.2-.6s-.7-.6-1.1-1-.6-1-.8-1.6c-.2-.6-.3-1.4-.3-2.3ZM106,40.1c0,.8,0,1.4.3,1.9.2.5.4.9.7,1.2.3.3.6.5,1,.6.4.1.7.2,1,.2s.6,0,1-.2c.4-.1.7-.3,1-.6s.5-.7.7-1.2c.2-.5.3-1.2.3-1.9s0-1.4-.3-1.9c-.2-.5-.4-.9-.7-1.2s-.6-.5-1-.6c-.4-.1-.7-.2-1-.2s-.6,0-1,.2c-.4.1-.7.3-1,.6-.3.3-.5.7-.7,1.2-.2.5-.3,1.2-.3,1.9Z"/>
    <path class="cls-2" d="M123.1,42.7c0,.1,0,.3,0,.5,0,.2-.1.4-.2.7-.1.2-.3.5-.4.7s-.4.5-.7.7c-.3.2-.6.3-1,.5-.4.1-.8.2-1.3.2-.8,0-1.4-.1-1.9-.4-.5-.3-.9-.6-1.2-1-.3-.4-.5-.9-.6-1.3-.1-.5-.2-.9-.2-1.4,0-.7,0-1.3.2-1.8.1-.6.4-1,.7-1.5.3-.4.7-.7,1.2-.9.5-.2,1.1-.3,1.8-.3s.7,0,1.1.1.8.2,1.2.5c.4.2.7.6.9,1s.4.9.5,1.6h-2.2c0-.1,0-.3-.1-.4,0-.2-.1-.3-.2-.4-.1-.1-.2-.2-.4-.3-.2,0-.4-.1-.6-.1h-.1c-.3,0-.6,0-.8.2-.2.2-.4.3-.5.6-.1.2-.2.5-.3.8,0,.3,0,.6,0,.8s0,.5,0,.8,0,.6.2.9c.1.3.3.5.5.7.2.2.5.3,1,.3s.5,0,.7-.2c.2-.1.3-.2.5-.4.1-.2.2-.3.2-.5,0-.2,0-.3,0-.4h2.2Z"/>
    <path class="cls-2" d="M127,37.4h1.4v1.6h-1.4v4.5c0,.1,0,.2,0,.3,0,0,0,.2.1.2s.1,0,.3.1.3,0,.5,0,.1,0,.2,0c0,0,.1,0,.2,0v1.6c-.2,0-.3,0-.5,0-.2,0-.3,0-.5,0h-.3c-.5,0-.8,0-1.1-.1s-.5-.2-.7-.4c-.2-.2-.3-.3-.3-.6,0-.2,0-.5,0-.7v-5h-1.1v-1.6h1.1v-2.2h2.2v2.2Z"/>
    <path class="cls-2" d="M137.6,41.5c0,.7-.1,1.4-.3,1.9-.2.6-.5,1-.9,1.4s-.8.6-1.3.8c-.5.2-1,.3-1.6.3s-1.1,0-1.6-.3c-.5-.2-1-.4-1.3-.8s-.7-.8-.9-1.4c-.2-.5-.3-1.2-.3-1.9s.1-1.4.3-1.9c.2-.5.5-1,.9-1.4s.8-.6,1.3-.8c.5-.2,1-.3,1.6-.3s1.1,0,1.6.3c.5.2,1,.4,1.3.8s.7.8.9,1.4c.2.5.3,1.2.3,1.9ZM135.4,41.5c0-.3,0-.5,0-.8s-.1-.6-.3-.8c-.1-.2-.3-.5-.6-.6-.3-.2-.6-.2-1-.2s-.8,0-1,.2c-.3.2-.5.4-.6.6-.1.2-.2.5-.3.8s0,.6,0,.8,0,.6,0,.8c0,.3.1.6.3.8s.3.5.6.6c.3.2.6.2,1,.2s.8,0,1-.2c.3-.2.5-.4.6-.6.1-.2.2-.5.3-.8,0-.3,0-.6,0-.8Z"/>
    <path class="cls-2" d="M141.2,38.5h0c0-.1.2-.3.3-.4.1-.2.3-.3.5-.4.2-.1.4-.2.7-.3.3,0,.6-.1.9-.1s.9,0,1.3.3c.4.2.8.4,1.1.8s.6.8.8,1.3c.2.5.3,1.2.3,1.9s0,1.1-.2,1.7c-.1.5-.3,1-.6,1.4-.3.4-.6.7-1.1,1-.4.2-1,.4-1.6.4s-.9,0-1.3-.3c-.4-.2-.8-.5-1.1-1h0v1h-2.1v-11.2h2.2v4ZM144.8,41.6c0-.3,0-.6,0-.9s-.2-.6-.3-.8c-.1-.2-.3-.4-.6-.6-.2-.1-.5-.2-.9-.2s-.7,0-.9.2c-.2.2-.4.4-.6.6-.1.2-.2.5-.3.8s0,.6,0,1,0,.6.1.9.2.5.3.8c.2.2.4.4.6.5.2.1.5.2.9.2s.6,0,.9-.3c.2-.2.4-.4.5-.6.1-.2.2-.5.3-.8,0-.3,0-.6,0-.8Z"/>
    <path class="cls-2" d="M155.6,43.2c-.1.5-.3.9-.6,1.3-.3.3-.6.6-.9.8-.3.2-.7.4-1,.4-.4,0-.7.1-1.1.1-.6,0-1.1,0-1.6-.2-.5-.1-.9-.4-1.3-.8-.4-.4-.7-.8-.9-1.4-.2-.6-.3-1.3-.3-2.1s0-.4,0-.7,0-.6.2-.9c0-.3.2-.6.4-.9.2-.3.4-.6.7-.9.3-.3.7-.5,1.1-.6.4-.2.9-.2,1.5-.2s.8,0,1.3.2c.5.1.9.3,1.3.7s.7.8,1,1.4c.3.6.4,1.4.4,2.3v.4h-5.7c0,.2,0,.3,0,.6,0,.2.1.5.3.7.1.2.3.4.6.6.3.2.6.2,1,.2s.6,0,.9-.2c.3-.1.5-.4.5-.7h2.2ZM153.5,40.7c0-.3-.1-.6-.2-.8-.1-.2-.2-.4-.4-.5-.2-.1-.3-.2-.5-.3-.2,0-.4,0-.5,0-.5,0-.9.2-1.2.5s-.4.7-.5,1.3h3.4Z"/>
    <path class="cls-2" d="M157.1,37.4h2.1v1.4h0c.1-.2.2-.4.4-.6.1-.2.3-.4.5-.5.2-.2.4-.3.6-.4s.5-.1.8-.1.1,0,.2,0,.1,0,.2,0v2.2c0,0-.2,0-.3,0h-.3c-.4,0-.8,0-1,.2-.3.1-.5.3-.6.5-.1.2-.2.4-.3.6,0,.2,0,.5,0,.7v4.3h-2.2v-8.3Z"/>
    <path class="cls-2" d="M166.8,38.5c0-.6,0-1.1.2-1.5.1-.4.3-.8.5-1.1.2-.3.5-.5.7-.7.3-.2.5-.3.8-.4s.5-.1.8-.2c.2,0,.4,0,.6,0,.5,0,1,0,1.5.2.5.2.9.4,1.2.7s.6.7.8,1.1c.2.4.3.9.3,1.5s0,.9-.2,1.3-.3.7-.5,1c-.2.3-.5.5-.7.8-.3.2-.5.4-.8.6-.4.3-.7.5-1,.7-.3.2-.5.4-.7.5-.2.2-.4.3-.5.4-.1.1-.2.3-.3.4h4.8v1.9h-7.5c0-.3,0-.7.1-1,0-.3.2-.7.3-1,.2-.4.4-.7.7-1.1.3-.4.8-.8,1.4-1.2.5-.4.9-.7,1.3-.9s.6-.5.9-.8c.2-.2.4-.5.5-.7.1-.2.2-.5.2-.8s0-.4,0-.6c0-.2-.2-.4-.3-.5-.1-.2-.3-.3-.5-.4-.2,0-.4-.1-.7-.1-.4,0-.7,0-.9.2-.2.1-.4.3-.5.5,0,.2-.2.4-.2.7,0,.2,0,.5,0,.7h-2.1Z"/>
    <path class="cls-2" d="M175.4,40.3c0-1.9.3-3.4.9-4.3.6-.9,1.6-1.4,2.9-1.4s2.3.5,2.9,1.4c.6.9.9,2.3.9,4.3s-.3,3.4-.9,4.3c-.6.9-1.6,1.4-2.9,1.4s-2.3-.5-2.9-1.4c-.6-.9-.9-2.4-.9-4.3ZM177.6,40.3c0,.7,0,1.3,0,1.8,0,.5.1.9.3,1.2.1.3.3.5.5.7.2.1.5.2.8.2s.6,0,.8-.2c.2-.1.4-.4.5-.7s.2-.7.3-1.2c0-.5,0-1.1,0-1.8s0-1.3,0-1.8c0-.5-.1-.9-.3-1.2s-.3-.5-.5-.7c-.2-.1-.5-.2-.8-.2s-.6,0-.8.2c-.2.1-.4.4-.5.7-.1.3-.2.7-.3,1.2,0,.5,0,1.1,0,1.8Z"/>
    <path class="cls-2" d="M184,38.5c0-.6,0-1.1.2-1.5.1-.4.3-.8.5-1.1.2-.3.5-.5.7-.7.3-.2.5-.3.8-.4s.5-.1.8-.2c.2,0,.4,0,.6,0,.5,0,1,0,1.5.2.5.2.9.4,1.2.7s.6.7.8,1.1c.2.4.3.9.3,1.5s0,.9-.2,1.3-.3.7-.5,1c-.2.3-.5.5-.7.8-.3.2-.5.4-.8.6-.4.3-.7.5-1,.7-.3.2-.5.4-.7.5-.2.2-.4.3-.5.4-.1.1-.2.3-.3.4h4.8v1.9h-7.5c0-.3,0-.7.1-1,0-.3.2-.7.3-1,.2-.4.4-.7.7-1.1.3-.4.8-.8,1.4-1.2.5-.4.9-.7,1.3-.9s.6-.5.9-.8c.2-.2.4-.5.5-.7.1-.2.2-.5.2-.8s0-.4,0-.6c0-.2-.2-.4-.3-.5-.1-.2-.3-.3-.5-.4-.2,0-.4-.1-.7-.1-.4,0-.7,0-.9.2-.2.1-.4.3-.5.5,0,.2-.2.4-.2.7,0,.2,0,.5,0,.7h-2.1Z"/>
    <path class="cls-2" d="M200.2,43.2h-1.2v2.4h-2.2v-2.4h-4.4v-1.9l4.1-6.7h2.5v6.9h1.2v1.7ZM196.8,41.5c0-1.3,0-2.4,0-3.3s0-1.3,0-1.5h0l-2.8,4.7h2.8Z"/>
  </g>
</svg>