<svg width="36" height="36" viewBox="0 0 36 36" fill="none" xmlns="http://www.w3.org/2000/svg">
<g clip-path="url(#clip0_58_32)">
<path d="M3.49549 8.73346L0.619224 5.46617L0.156765 4.93979C-0.0512785 4.70292 -0.0512785 4.34825 0.156765 4.11138L0.619224 3.585L3.49549 0.318963C3.83889 -0.0708064 4.43294 -0.108405 4.82271 0.234993C5.21248 0.578391 5.25008 1.17119 4.90668 1.56096L3.12452 3.58625H11.5929C12.0704 3.58625 12.4965 3.92965 12.5567 4.40339C12.6294 4.97739 12.1832 5.46617 11.6242 5.46617H3.12452L4.90668 7.49146C5.25008 7.88123 5.21248 8.47529 4.82271 8.81743C4.43294 9.16083 3.83889 9.12323 3.49549 8.73346Z" fill="black"/>
</g>
<path d="M32.5052 8.73331L35.3815 5.46602L35.844 4.93964C36.052 4.70277 36.052 4.34809 35.844 4.11122L35.3815 3.58485L32.5052 0.31881C32.1618 -0.070959 31.5678 -0.108557 31.178 0.23484C30.7883 0.578238 30.7507 1.17104 31.094 1.56081L32.8762 3.5861H24.4078C23.9303 3.5861 23.5042 3.9295 23.444 4.40324C23.3714 4.97724 23.8175 5.46602 24.3765 5.46602H32.8762L31.094 7.49131C30.7507 7.88108 30.7883 8.47513 31.178 8.81728C31.5678 9.16068 32.1618 9.12308 32.5052 8.73331Z" fill="black"/>
<path d="M32.2117 14.2729C31.768 14.0373 31.2655 13.912 30.7591 13.912C30.2528 13.912 29.7503 14.0373 29.3066 14.2729C29.2301 14.3131 29.1575 14.3582 29.0848 14.4033C28.9569 14.1915 28.8053 13.9947 28.6286 13.818C28.0433 13.2327 27.2638 12.9094 26.4353 12.9094C25.9027 12.9094 25.3901 13.0472 24.9402 13.2954C24.7083 12.7816 24.3348 12.3279 23.836 11.9895C23.4851 11.7514 23.0853 11.5909 22.6692 11.517C22.0326 11.4055 21.4222 11.4894 20.8896 11.7188V6.05146C20.8896 5.23933 20.6013 4.44475 20.0436 3.85446C19.4358 3.21278 18.6036 2.86563 17.7201 2.88317C16.0231 2.91952 14.6859 4.35327 14.6859 6.05146V18.7133L13.4263 17.1968C12.0001 15.4811 9.44341 15.2455 7.72768 16.6705C6.799 17.4412 6.26636 18.5767 6.26636 19.7849C6.26636 20.7261 6.59848 21.6447 7.2013 22.3691L14.3462 30.9653C15.117 31.894 15.5419 33.0708 15.5419 34.2765V35.2165H25.7047C30.209 35.2165 33.861 31.5644 33.861 27.0601V17.0126C33.861 16.1854 33.5389 15.4072 32.9524 14.8194C32.733 14.6001 32.4836 14.4158 32.2117 14.2717V14.2729ZM31.9811 17.6505V27.0614C31.9811 30.5279 29.1712 33.3378 25.7047 33.3378H17.3591C17.1824 32.0306 16.6422 30.7886 15.7925 29.766L8.64758 21.1697C8.32424 20.7812 8.14627 20.2899 8.14627 19.7861C8.14627 19.1394 8.43202 18.5303 8.92832 18.118C9.84697 17.3535 11.2155 17.4801 11.98 18.4L16.5658 23.9182V6.03266C16.5658 5.34711 17.1097 4.75807 17.7965 4.76309C18.1123 4.76559 18.4094 4.88591 18.6349 5.10398C18.8831 5.34335 19.0097 5.68299 19.0097 6.02764V18.7572C19.0097 19.2535 19.412 19.6558 19.9083 19.6558H19.991C20.4873 19.6558 20.8896 19.2535 20.8896 18.7572V14.6176C20.8896 13.9321 21.4335 13.343 22.1203 13.348C22.4361 13.3505 22.7332 13.4709 22.9587 13.6889C23.2069 13.9283 23.3335 14.2679 23.3335 14.6126V19.7598C23.3335 20.2561 23.7358 20.6584 24.2321 20.6584H24.3148C24.8111 20.6584 25.2134 20.2561 25.2134 19.7598V16.0112C25.2134 15.8308 25.251 15.6603 25.3274 15.4974C25.5255 15.0675 25.9603 14.7893 26.4353 14.7893C26.7624 14.7893 27.0695 14.9159 27.3001 15.1465C27.4004 15.2467 27.4843 15.3671 27.5457 15.5012C27.6197 15.6591 27.6573 15.8308 27.6573 16.0112V20.6584C27.6573 21.1547 28.0596 21.557 28.5559 21.557H28.6386C29.1349 21.557 29.5372 21.1547 29.5372 20.6584V17.0139C29.5372 16.5602 29.7866 16.1466 30.1889 15.9323C30.5411 15.7456 30.976 15.7443 31.3306 15.9323C31.4384 15.9899 31.5374 16.0614 31.6226 16.1466C31.8545 16.3785 31.9811 16.6855 31.9811 17.0126V17.6493V17.6505Z" fill="black"/>
<defs>
<clipPath id="clip0_58_32">
<rect width="12.5641" height="9.05242" fill="white" transform="translate(0 0.000640869)"/>
</clipPath>
</defs>
</svg>
